%TF.GenerationSoftware,KiCad,Pcbnew,9.0.2*%
%TF.CreationDate,2026-03-11T19:14:36+01:00*%
%TF.ProjectId,Cody,436f6479-2e6b-4696-9361-645f70636258,rev?*%
%TF.SameCoordinates,Original*%
%TF.FileFunction,Copper,L1,Top*%
%TF.FilePolarity,Positive*%
%FSLAX46Y46*%
G04 Gerber Fmt 4.6, Leading zero omitted, Abs format (unit mm)*
G04 Created by KiCad (PCBNEW 9.0.2) date 2026-03-11 19:14:36*
%MOMM*%
%LPD*%
G01*
G04 APERTURE LIST*
G04 Aperture macros list*
%AMRoundRect*
0 Rectangle with rounded corners*
0 $1 Rounding radius*
0 $2 $3 $4 $5 $6 $7 $8 $9 X,Y pos of 4 corners*
0 Add a 4 corners polygon primitive as box body*
4,1,4,$2,$3,$4,$5,$6,$7,$8,$9,$2,$3,0*
0 Add four circle primitives for the rounded corners*
1,1,$1+$1,$2,$3*
1,1,$1+$1,$4,$5*
1,1,$1+$1,$6,$7*
1,1,$1+$1,$8,$9*
0 Add four rect primitives between the rounded corners*
20,1,$1+$1,$2,$3,$4,$5,0*
20,1,$1+$1,$4,$5,$6,$7,0*
20,1,$1+$1,$6,$7,$8,$9,0*
20,1,$1+$1,$8,$9,$2,$3,0*%
G04 Aperture macros list end*
%TA.AperFunction,ComponentPad*%
%ADD10C,1.600000*%
%TD*%
%TA.AperFunction,ComponentPad*%
%ADD11RoundRect,0.225000X-0.525000X-0.525000X0.525000X-0.525000X0.525000X0.525000X-0.525000X0.525000X0*%
%TD*%
%TA.AperFunction,ComponentPad*%
%ADD12C,1.500000*%
%TD*%
%TA.AperFunction,ComponentPad*%
%ADD13RoundRect,0.250000X0.725000X-0.600000X0.725000X0.600000X-0.725000X0.600000X-0.725000X-0.600000X0*%
%TD*%
%TA.AperFunction,ComponentPad*%
%ADD14O,1.950000X1.700000*%
%TD*%
%TA.AperFunction,ComponentPad*%
%ADD15RoundRect,0.450000X-0.450000X0.450000X-0.450000X-0.450000X0.450000X-0.450000X0.450000X0.450000X0*%
%TD*%
%TA.AperFunction,ComponentPad*%
%ADD16C,1.800000*%
%TD*%
%TA.AperFunction,ComponentPad*%
%ADD17RoundRect,0.250000X-0.725000X0.600000X-0.725000X-0.600000X0.725000X-0.600000X0.725000X0.600000X0*%
%TD*%
%TA.AperFunction,ComponentPad*%
%ADD18R,2.000000X2.000000*%
%TD*%
%TA.AperFunction,ComponentPad*%
%ADD19C,2.000000*%
%TD*%
%TA.AperFunction,ComponentPad*%
%ADD20RoundRect,0.250000X-0.750000X0.600000X-0.750000X-0.600000X0.750000X-0.600000X0.750000X0.600000X0*%
%TD*%
%TA.AperFunction,ComponentPad*%
%ADD21O,2.000000X1.700000*%
%TD*%
%TA.AperFunction,ComponentPad*%
%ADD22RoundRect,0.250000X0.600000X0.725000X-0.600000X0.725000X-0.600000X-0.725000X0.600000X-0.725000X0*%
%TD*%
%TA.AperFunction,ComponentPad*%
%ADD23O,1.700000X1.950000*%
%TD*%
%TA.AperFunction,ComponentPad*%
%ADD24RoundRect,1.500000X-1.500000X-1.500000X1.500000X-1.500000X1.500000X1.500000X-1.500000X1.500000X0*%
%TD*%
%TA.AperFunction,ComponentPad*%
%ADD25C,6.000000*%
%TD*%
%TA.AperFunction,ComponentPad*%
%ADD26R,1.560000X1.560000*%
%TD*%
%TA.AperFunction,ComponentPad*%
%ADD27C,1.560000*%
%TD*%
%TA.AperFunction,ViaPad*%
%ADD28C,0.700000*%
%TD*%
%TA.AperFunction,Conductor*%
%ADD29C,0.300000*%
%TD*%
%TA.AperFunction,Conductor*%
%ADD30C,3.000000*%
%TD*%
%TA.AperFunction,Conductor*%
%ADD31C,0.800000*%
%TD*%
G04 APERTURE END LIST*
D10*
%TO.P,R4,1*%
%TO.N,/BMS_2*%
X116440000Y-38500000D03*
%TO.P,R4,2*%
%TO.N,/BMS_IN_3*%
X108820000Y-38500000D03*
%TD*%
D11*
%TO.P,U2,1,VM*%
%TO.N,+12V*%
X81892660Y-103430000D03*
D12*
%TO.P,U2,2,VCC*%
%TO.N,+3V3*%
X81892660Y-105970000D03*
%TO.P,U2,3,GND*%
%TO.N,unconnected-(U2-GND-Pad3)*%
X81892660Y-108510000D03*
%TO.P,U2,4,AO1*%
%TO.N,/L_OUT_1*%
X81892660Y-111050000D03*
%TO.P,U2,5,AO2*%
%TO.N,/L_OUT_2*%
X81892660Y-113590000D03*
%TO.P,U2,6,BO1*%
%TO.N,/R_OUT_1*%
X81892660Y-116130000D03*
%TO.P,U2,7,BO2*%
%TO.N,/R_OUT_2*%
X81860000Y-118685579D03*
%TO.P,U2,8,GND*%
%TO.N,GND*%
X81892660Y-121210000D03*
D11*
%TO.P,U2,9,PWMA*%
%TO.N,/L_PWM*%
X94860000Y-103405579D03*
D12*
%TO.P,U2,10,AIN2*%
%TO.N,/L_IN_2*%
X94860000Y-105945579D03*
%TO.P,U2,11,AIN1*%
%TO.N,/L_IN_1*%
X94860000Y-108485579D03*
%TO.P,U2,12,STNDBY*%
%TO.N,/STNDBY*%
X94860000Y-111025579D03*
%TO.P,U2,13,BIN1*%
%TO.N,/R_IN_1*%
X94860000Y-113565579D03*
%TO.P,U2,14,BIN2*%
%TO.N,/R_IN_2*%
X94860000Y-116105579D03*
%TO.P,U2,15,PWMB*%
%TO.N,/R_PWM*%
X94827340Y-118661158D03*
%TO.P,U2,16,GND*%
%TO.N,GND*%
X94860000Y-121185579D03*
%TD*%
D13*
%TO.P,J3,1,Pin_1*%
%TO.N,/A3_OUT_1*%
X146600000Y-75750000D03*
D14*
%TO.P,J3,2,Pin_2*%
%TO.N,/A3_OUT_2*%
X146600000Y-73250000D03*
%TO.P,J3,3,Pin_3*%
%TO.N,/A3_A*%
X146600000Y-70750000D03*
%TO.P,J3,4,Pin_4*%
%TO.N,/A3_B*%
X146600000Y-68250000D03*
%TO.P,J3,5,Pin_5*%
%TO.N,+3V3*%
X146600000Y-65750000D03*
%TO.P,J3,6,Pin_6*%
%TO.N,GND*%
X146600000Y-63250000D03*
%TD*%
D15*
%TO.P,D1,1,RA*%
%TO.N,/LED_R*%
X39000000Y-111698000D03*
D16*
%TO.P,D1,2,GA*%
%TO.N,/LED_G*%
X37476000Y-113476000D03*
%TO.P,D1,3,BA*%
%TO.N,/LED_B*%
X39000000Y-115000000D03*
%TO.P,D1,4,K*%
%TO.N,GND*%
X37476000Y-116524000D03*
%TD*%
D13*
%TO.P,J15,1,Pin_1*%
%TO.N,unconnected-(J15-Pin_1-Pad1)*%
X147000000Y-117150000D03*
D14*
%TO.P,J15,2,Pin_2*%
%TO.N,GND*%
X147000000Y-114650000D03*
%TO.P,J15,3,Pin_3*%
%TO.N,+3V3*%
X147000000Y-112150000D03*
%TO.P,J15,4,Pin_4*%
%TO.N,/SCL*%
X147000000Y-109650000D03*
%TO.P,J15,5,Pin_5*%
%TO.N,/SDA*%
X147000000Y-107150000D03*
%TO.P,J15,6,Pin_6*%
%TO.N,unconnected-(J15-Pin_6-Pad6)*%
X147000000Y-104650000D03*
%TO.P,J15,7,Pin_7*%
%TO.N,unconnected-(J15-Pin_7-Pad7)*%
X147000000Y-102150000D03*
%TD*%
D13*
%TO.P,J2,1,Pin_1*%
%TO.N,/R_OUT_1*%
X146600000Y-56250000D03*
D14*
%TO.P,J2,2,Pin_2*%
%TO.N,/R_OUT_2*%
X146600000Y-53750000D03*
%TO.P,J2,3,Pin_3*%
%TO.N,/R_A*%
X146600000Y-51250000D03*
%TO.P,J2,4,Pin_4*%
%TO.N,/R_B*%
X146600000Y-48750000D03*
%TO.P,J2,5,Pin_5*%
%TO.N,+3V3*%
X146600000Y-46250000D03*
%TO.P,J2,6,Pin_6*%
%TO.N,GND*%
X146600000Y-43750000D03*
%TD*%
D17*
%TO.P,J5,1,Pin_1*%
%TO.N,/A1_OUT_1*%
X39000000Y-63250000D03*
D14*
%TO.P,J5,2,Pin_2*%
%TO.N,/A1_OUT_2*%
X39000000Y-65750000D03*
%TO.P,J5,3,Pin_3*%
%TO.N,/A1_A*%
X39000000Y-68250000D03*
%TO.P,J5,4,Pin_4*%
%TO.N,/A1_B*%
X39000000Y-70750000D03*
%TO.P,J5,5,Pin_5*%
%TO.N,+3V3*%
X39000000Y-73250000D03*
%TO.P,J5,6,Pin_6*%
%TO.N,GND*%
X39000000Y-75750000D03*
%TD*%
D10*
%TO.P,R6,1*%
%TO.N,/BMS_3*%
X127120000Y-35000000D03*
%TO.P,R6,2*%
%TO.N,GND*%
X119500000Y-35000000D03*
%TD*%
D18*
%TO.P,U4,1,VCC*%
%TO.N,+3V3*%
X103602000Y-69566000D03*
D19*
%TO.P,U4,2,GND*%
%TO.N,GND*%
X103602000Y-72106000D03*
%TO.P,U4,3,SCL*%
%TO.N,/SCL*%
X103602000Y-74646000D03*
%TO.P,U4,4,SDA*%
%TO.N,/SDA*%
X103602000Y-77186000D03*
%TO.P,U4,5,EDA*%
%TO.N,unconnected-(U4-EDA-Pad5)*%
X103602000Y-79726000D03*
%TO.P,U4,6,ECL*%
%TO.N,unconnected-(U4-ECL-Pad6)*%
X103602000Y-82266000D03*
%TO.P,U4,7,ADO*%
%TO.N,GND*%
X103602000Y-84806000D03*
%TO.P,U4,8,INT*%
%TO.N,unconnected-(U4-INT-Pad8)*%
X103602000Y-87346000D03*
%TO.P,U4,9,NCS*%
%TO.N,unconnected-(U4-NCS-Pad9)*%
X103602000Y-89886000D03*
%TO.P,U4,10,FSYNC*%
%TO.N,unconnected-(U4-FSYNC-Pad10)*%
X103602000Y-92426000D03*
%TD*%
D11*
%TO.P,U7,1,VM*%
%TO.N,+12V*%
X121992660Y-103430000D03*
D12*
%TO.P,U7,2,VCC*%
%TO.N,+3V3*%
X121992660Y-105970000D03*
%TO.P,U7,3,GND*%
%TO.N,unconnected-(U7-GND-Pad3)*%
X121992660Y-108510000D03*
%TO.P,U7,4,AO1*%
%TO.N,/A3_OUT_1*%
X121992660Y-111050000D03*
%TO.P,U7,5,AO2*%
%TO.N,/A3_OUT_2*%
X121992660Y-113590000D03*
%TO.P,U7,6,BO1*%
%TO.N,/A4_OUT_1*%
X121992660Y-116130000D03*
%TO.P,U7,7,BO2*%
%TO.N,/A4_OUT_2*%
X121960000Y-118685579D03*
%TO.P,U7,8,GND*%
%TO.N,GND*%
X121992660Y-121210000D03*
D11*
%TO.P,U7,9,PWMA*%
%TO.N,/A3_PWM*%
X134960000Y-103405579D03*
D12*
%TO.P,U7,10,AIN2*%
%TO.N,/A3_IN_2*%
X134960000Y-105945579D03*
%TO.P,U7,11,AIN1*%
%TO.N,/A3_IN_1*%
X134960000Y-108485579D03*
%TO.P,U7,12,STNDBY*%
%TO.N,/STNDBY*%
X134960000Y-111025579D03*
%TO.P,U7,13,BIN1*%
%TO.N,/A4_IN_1*%
X134960000Y-113565579D03*
%TO.P,U7,14,BIN2*%
%TO.N,/A4_IN_2*%
X134960000Y-116105579D03*
%TO.P,U7,15,PWMB*%
%TO.N,/A4_PWM*%
X134927340Y-118661158D03*
%TO.P,U7,16,GND*%
%TO.N,GND*%
X134960000Y-121185579D03*
%TD*%
D10*
%TO.P,R2,1*%
%TO.N,/BMS_1*%
X105880000Y-35000000D03*
%TO.P,R2,2*%
%TO.N,/BMS_IN_2*%
X98260000Y-35000000D03*
%TD*%
D11*
%TO.P,U3,1,VM*%
%TO.N,+12V*%
X101942660Y-103430000D03*
D12*
%TO.P,U3,2,VCC*%
%TO.N,+3V3*%
X101942660Y-105970000D03*
%TO.P,U3,3,GND*%
%TO.N,unconnected-(U3-GND-Pad3)*%
X101942660Y-108510000D03*
%TO.P,U3,4,AO1*%
%TO.N,/A1_OUT_1*%
X101942660Y-111050000D03*
%TO.P,U3,5,AO2*%
%TO.N,/A1_OUT_2*%
X101942660Y-113590000D03*
%TO.P,U3,6,BO1*%
%TO.N,/A2_OUT_1*%
X101942660Y-116130000D03*
%TO.P,U3,7,BO2*%
%TO.N,/A2_OUT_2*%
X101910000Y-118685579D03*
%TO.P,U3,8,GND*%
%TO.N,GND*%
X101942660Y-121210000D03*
D11*
%TO.P,U3,9,PWMA*%
%TO.N,/A1_PWM*%
X114910000Y-103405579D03*
D12*
%TO.P,U3,10,AIN2*%
%TO.N,/A1_IN_2*%
X114910000Y-105945579D03*
%TO.P,U3,11,AIN1*%
%TO.N,/A1_IN_1*%
X114910000Y-108485579D03*
%TO.P,U3,12,STNDBY*%
%TO.N,/STNDBY*%
X114910000Y-111025579D03*
%TO.P,U3,13,BIN1*%
%TO.N,/A2_IN_1*%
X114910000Y-113565579D03*
%TO.P,U3,14,BIN2*%
%TO.N,/A2_IN_2*%
X114910000Y-116105579D03*
%TO.P,U3,15,PWMB*%
%TO.N,/A2_PWM*%
X114877340Y-118661158D03*
%TO.P,U3,16,GND*%
%TO.N,GND*%
X114910000Y-121185579D03*
%TD*%
D18*
%TO.P,BZ1,1,+*%
%TO.N,/BUZZER*%
X132400000Y-39000000D03*
D19*
%TO.P,BZ1,2,-*%
%TO.N,GND*%
X140000000Y-39000000D03*
%TD*%
D11*
%TO.P,U6,1,P10*%
%TO.N,/A3_IN_1*%
X81000000Y-69494421D03*
D12*
%TO.P,U6,2,P11*%
%TO.N,/A3_IN_2*%
X81000000Y-72034421D03*
%TO.P,U6,3,P12*%
%TO.N,/A4_IN_1*%
X81000000Y-74574421D03*
%TO.P,U6,4,P13*%
%TO.N,/A4_IN_2*%
X81000000Y-77114421D03*
%TO.P,U6,5,P14*%
%TO.N,/LED_R*%
X81000000Y-79654421D03*
%TO.P,U6,6,P15*%
%TO.N,/LED_G*%
X81000000Y-82194421D03*
%TO.P,U6,7,P16*%
%TO.N,/LED_B*%
X81000000Y-84734421D03*
%TO.P,U6,8,P17*%
%TO.N,/STNDBY*%
X81000000Y-87274421D03*
%TO.P,U6,9,VDD*%
%TO.N,unconnected-(U6-VDD-Pad9)*%
X81000000Y-89814421D03*
%TO.P,U6,10,GND*%
%TO.N,unconnected-(U6-GND-Pad10)*%
X80971193Y-92349227D03*
D11*
%TO.P,U6,11,P07*%
%TO.N,/A2_IN_2*%
X99000000Y-69494421D03*
D12*
%TO.P,U6,12,P06*%
%TO.N,/A2_IN_1*%
X99000000Y-72034421D03*
%TO.P,U6,13,P05*%
%TO.N,/A1_IN_2*%
X99000000Y-74574421D03*
%TO.P,U6,14,P04*%
%TO.N,/A1_IN_1*%
X99000000Y-77114421D03*
%TO.P,U6,15,P03*%
%TO.N,/R_IN_2*%
X99000000Y-79654421D03*
%TO.P,U6,16,P02*%
%TO.N,/R_IN_1*%
X99000000Y-82194421D03*
%TO.P,U6,17,P01*%
%TO.N,/L_IN_2*%
X99000000Y-84734421D03*
%TO.P,U6,18,P00*%
%TO.N,/L_IN_1*%
X99000000Y-87274421D03*
%TO.P,U6,19,VDD*%
%TO.N,unconnected-(U6-VDD-Pad19)*%
X99000000Y-89814421D03*
%TO.P,U6,20,GND*%
%TO.N,unconnected-(U6-GND-Pad20)*%
X98971193Y-92349227D03*
%TO.P,U6,21,GND*%
%TO.N,GND*%
X84920000Y-98494421D03*
%TO.P,U6,22,VCC*%
%TO.N,+3V3*%
X87460000Y-98494421D03*
%TO.P,U6,23,SDA*%
%TO.N,/SDA*%
X90000000Y-98494421D03*
%TO.P,U6,24,SCL*%
%TO.N,/SCL*%
X92540000Y-98494421D03*
%TO.P,U6,25,INT*%
%TO.N,unconnected-(U6-INT-Pad25)*%
X95080000Y-98494421D03*
%TD*%
D11*
%TO.P,U5,1,VDD*%
%TO.N,+3V3*%
X120960000Y-70610000D03*
D12*
%TO.P,U5,2,GND*%
%TO.N,GND*%
X120960000Y-73150000D03*
%TO.P,U5,3,SCL*%
%TO.N,/SCL*%
X120960000Y-75690000D03*
%TO.P,U5,4,SDA*%
%TO.N,/SDA*%
X120960000Y-78230000D03*
%TO.P,U5,5,ADDR*%
%TO.N,GND*%
X120960000Y-80770000D03*
%TO.P,U5,6,ALRT*%
%TO.N,unconnected-(U5-ALRT-Pad6)*%
X120954385Y-83310000D03*
%TO.P,U5,7,A0*%
%TO.N,/BMS_1*%
X120960000Y-85850000D03*
%TO.P,U5,8,A1*%
%TO.N,/BMS_2*%
X120960000Y-88390000D03*
%TO.P,U5,9,A2*%
%TO.N,/BMS_3*%
X120960000Y-90930000D03*
%TO.P,U5,10,A3*%
%TO.N,unconnected-(U5-A3-Pad10)*%
X120960000Y-93470000D03*
%TD*%
D17*
%TO.P,J6,1,Pin_1*%
%TO.N,/A2_OUT_1*%
X39000000Y-82750000D03*
D14*
%TO.P,J6,2,Pin_2*%
%TO.N,/A2_OUT_2*%
X39000000Y-85250000D03*
%TO.P,J6,3,Pin_3*%
%TO.N,/A2_A*%
X39000000Y-87750000D03*
%TO.P,J6,4,Pin_4*%
%TO.N,/A2_B*%
X39000000Y-90250000D03*
%TO.P,J6,5,Pin_5*%
%TO.N,+3V3*%
X39000000Y-92750000D03*
%TO.P,J6,6,Pin_6*%
%TO.N,GND*%
X39000000Y-95250000D03*
%TD*%
D20*
%TO.P,J8,1,Pin_1*%
%TO.N,/CAM_TX*%
X39000000Y-104024000D03*
D21*
%TO.P,J8,2,Pin_2*%
%TO.N,/CAM_RX*%
X39000000Y-106524000D03*
%TD*%
D22*
%TO.P,J7,1,Pin_1*%
%TO.N,/BMS_IN_1*%
X91500000Y-37000000D03*
D23*
%TO.P,J7,2,Pin_2*%
%TO.N,/BMS_IN_2*%
X89000000Y-37000000D03*
%TO.P,J7,3,Pin_3*%
%TO.N,/BMS_IN_3*%
X86500000Y-37000000D03*
%TO.P,J7,4,Pin_4*%
%TO.N,GND*%
X84000000Y-37000000D03*
%TD*%
D17*
%TO.P,J1,1,Pin_1*%
%TO.N,/L_OUT_1*%
X39000000Y-44000000D03*
D14*
%TO.P,J1,2,Pin_2*%
%TO.N,/L_OUT_2*%
X39000000Y-46500000D03*
%TO.P,J1,3,Pin_3*%
%TO.N,/L_A*%
X39000000Y-49000000D03*
%TO.P,J1,4,Pin_4*%
%TO.N,/L_B*%
X39000000Y-51500000D03*
%TO.P,J1,5,Pin_5*%
%TO.N,+3V3*%
X39000000Y-54000000D03*
%TO.P,J1,6,Pin_6*%
%TO.N,GND*%
X39000000Y-56500000D03*
%TD*%
D10*
%TO.P,R3,1*%
%TO.N,/BMS_IN_2*%
X108820000Y-35000000D03*
%TO.P,R3,2*%
%TO.N,/BMS_2*%
X116440000Y-35000000D03*
%TD*%
D24*
%TO.P,J14,1,Pin_1*%
%TO.N,+6V*%
X49200000Y-37500000D03*
D25*
%TO.P,J14,2,Pin_2*%
%TO.N,GND*%
X56400000Y-37500000D03*
%TD*%
D10*
%TO.P,R1,1*%
%TO.N,/BMS_IN_1*%
X98250000Y-38500000D03*
%TO.P,R1,2*%
%TO.N,/BMS_1*%
X105870000Y-38500000D03*
%TD*%
D13*
%TO.P,J4,1,Pin_1*%
%TO.N,/A4_OUT_1*%
X146850000Y-95250000D03*
D14*
%TO.P,J4,2,Pin_2*%
%TO.N,/A4_OUT_2*%
X146850000Y-92750000D03*
%TO.P,J4,3,Pin_3*%
%TO.N,/A4_A*%
X146850000Y-90250000D03*
%TO.P,J4,4,Pin_4*%
%TO.N,/A4_B*%
X146850000Y-87750000D03*
%TO.P,J4,5,Pin_5*%
%TO.N,+3V3*%
X146850000Y-85250000D03*
%TO.P,J4,6,Pin_6*%
%TO.N,GND*%
X146850000Y-82750000D03*
%TD*%
D26*
%TO.P,U1,J2-1,3V3*%
%TO.N,+3V3*%
X48742000Y-75866000D03*
D27*
%TO.P,U1,J2-2,EN*%
%TO.N,unconnected-(U1-EN-PadJ2-2)*%
X48742000Y-78406000D03*
%TO.P,U1,J2-3,SENSOR_VP*%
%TO.N,/A2_A*%
X48742000Y-80946000D03*
%TO.P,U1,J2-4,SENSOR_VN*%
%TO.N,/A2_B*%
X48742000Y-83486000D03*
%TO.P,U1,J2-5,IO34*%
%TO.N,/A1_A*%
X48742000Y-86026000D03*
%TO.P,U1,J2-6,IO35*%
%TO.N,/A1_B*%
X48742000Y-88566000D03*
%TO.P,U1,J2-7,IO32*%
%TO.N,/R_A*%
X48742000Y-91106000D03*
%TO.P,U1,J2-8,IO33*%
%TO.N,/R_B*%
X48742000Y-93646000D03*
%TO.P,U1,J2-9,IO25*%
%TO.N,/CAM_RX*%
X48742000Y-96186000D03*
%TO.P,U1,J2-10,IO26*%
%TO.N,/L_A*%
X48742000Y-98726000D03*
%TO.P,U1,J2-11,IO27*%
%TO.N,/L_B*%
X48742000Y-101266000D03*
%TO.P,U1,J2-12,IO14*%
%TO.N,/A4_A*%
X48742000Y-103806000D03*
%TO.P,U1,J2-13,IO12*%
%TO.N,/A3_A*%
X48742000Y-106346000D03*
%TO.P,U1,J2-14,GND1*%
%TO.N,GND*%
X48742000Y-108886000D03*
%TO.P,U1,J2-15,IO13*%
%TO.N,/A3_B*%
X48742000Y-111426000D03*
%TO.P,U1,J2-16,SD2*%
%TO.N,unconnected-(U1-SD2-PadJ2-16)*%
X48742000Y-113966000D03*
%TO.P,U1,J2-17,SD3*%
%TO.N,unconnected-(U1-SD3-PadJ2-17)*%
X48742000Y-116506000D03*
%TO.P,U1,J2-18,CMD*%
%TO.N,unconnected-(U1-CMD-PadJ2-18)*%
X48742000Y-119046000D03*
%TO.P,U1,J2-19,EXT_5V*%
%TO.N,+6V*%
X48742000Y-121586000D03*
%TO.P,U1,J3-1,GND3*%
%TO.N,unconnected-(U1-GND3-PadJ3-1)*%
X74142000Y-75866000D03*
%TO.P,U1,J3-2,IO23*%
%TO.N,/CAM_TX*%
X74142000Y-78406000D03*
%TO.P,U1,J3-3,IO22*%
%TO.N,/SCL*%
X74142000Y-80946000D03*
%TO.P,U1,J3-4,TXD0*%
%TO.N,unconnected-(U1-TXD0-PadJ3-4)*%
X74142000Y-83486000D03*
%TO.P,U1,J3-5,RXD0*%
%TO.N,unconnected-(U1-RXD0-PadJ3-5)*%
X74142000Y-86026000D03*
%TO.P,U1,J3-6,IO21*%
%TO.N,/SDA*%
X74142000Y-88566000D03*
%TO.P,U1,J3-7,GND2*%
%TO.N,unconnected-(U1-GND2-PadJ3-7)*%
X74142000Y-91106000D03*
%TO.P,U1,J3-8,IO19*%
%TO.N,/A4_PWM*%
X74142000Y-93646000D03*
%TO.P,U1,J3-9,IO18*%
%TO.N,/A3_PWM*%
X74142000Y-96186000D03*
%TO.P,U1,J3-10,IO5*%
%TO.N,/BUZZER*%
X74142000Y-98726000D03*
%TO.P,U1,J3-11,IO17*%
%TO.N,/A2_PWM*%
X74142000Y-101266000D03*
%TO.P,U1,J3-12,IO16*%
%TO.N,/A1_PWM*%
X74142000Y-103806000D03*
%TO.P,U1,J3-13,IO4*%
%TO.N,/R_PWM*%
X74142000Y-106346000D03*
%TO.P,U1,J3-14,IO0*%
%TO.N,unconnected-(U1-IO0-PadJ3-14)*%
X74142000Y-108886000D03*
%TO.P,U1,J3-15,IO2*%
%TO.N,/L_PWM*%
X74142000Y-111426000D03*
%TO.P,U1,J3-16,IO15*%
%TO.N,/A4_B*%
X74142000Y-113966000D03*
%TO.P,U1,J3-17,SD1*%
%TO.N,unconnected-(U1-SD1-PadJ3-17)*%
X74142000Y-116506000D03*
%TO.P,U1,J3-18,SD0*%
%TO.N,unconnected-(U1-SD0-PadJ3-18)*%
X74142000Y-119046000D03*
%TO.P,U1,J3-19,CLK*%
%TO.N,unconnected-(U1-CLK-PadJ3-19)*%
X74142000Y-121586000D03*
%TD*%
D10*
%TO.P,R5,1*%
%TO.N,/BMS_IN_3*%
X119500000Y-38500000D03*
%TO.P,R5,2*%
%TO.N,/BMS_3*%
X127120000Y-38500000D03*
%TD*%
D24*
%TO.P,J13,1,Pin_1*%
%TO.N,+12V*%
X66800000Y-37500000D03*
D25*
%TO.P,J13,2,Pin_2*%
%TO.N,GND*%
X74000000Y-37500000D03*
%TD*%
D28*
%TO.N,GND*%
X92750000Y-97250000D03*
X141250000Y-69750000D03*
X139500000Y-71500000D03*
X101950000Y-82500000D03*
%TO.N,/BMS_1*%
X109000000Y-69500000D03*
X109000000Y-82500000D03*
%TO.N,/BMS_2*%
X110500000Y-69500000D03*
X110500000Y-82500000D03*
%TO.N,/BMS_3*%
X112500000Y-69500000D03*
X112500000Y-82500000D03*
%TO.N,/L_PWM*%
X79000000Y-108000000D03*
X90000000Y-108000000D03*
%TO.N,/A2_B*%
X43250000Y-87000000D03*
%TO.N,/SDA*%
X101250000Y-77250000D03*
X71500000Y-79500000D03*
X71825029Y-65325029D03*
X100500000Y-87000000D03*
%TO.N,/A3_B*%
X92000000Y-83555000D03*
X87000000Y-83555000D03*
X126000000Y-82000000D03*
%TO.N,/A3_A*%
X126000000Y-84000000D03*
X87000000Y-86000000D03*
X102000000Y-92000000D03*
%TO.N,/R_PWM*%
X72000000Y-117000000D03*
%TO.N,/R_B*%
X74000000Y-64000000D03*
%TO.N,/A1_PWM*%
X79000000Y-109000000D03*
X91000000Y-108000000D03*
%TO.N,/STNDBY*%
X87349000Y-101151000D03*
X84000000Y-101000000D03*
X82500000Y-92000000D03*
X82500000Y-88774421D03*
X125000000Y-110000000D03*
X126000000Y-109000000D03*
%TO.N,/SCL*%
X122250000Y-69250000D03*
X121250000Y-63000000D03*
X101279409Y-86720591D03*
X74875000Y-63125000D03*
%TO.N,/R_A*%
X73000000Y-65000000D03*
%TO.N,+3V3*%
X97000000Y-87000000D03*
X87000000Y-76000000D03*
X51866000Y-75866000D03*
%TO.N,/L_B*%
X50250000Y-94750000D03*
X50250000Y-99758000D03*
%TO.N,/A4_A*%
X75750000Y-119500000D03*
X80125000Y-113625000D03*
X55343000Y-110407000D03*
X125000000Y-111000000D03*
X140000000Y-97000000D03*
%TO.N,/A4_B*%
X140000000Y-94000000D03*
X124000000Y-110000000D03*
X79000000Y-110000000D03*
%TO.N,/A2_A*%
X43250000Y-84750000D03*
%TO.N,/A2_PWM*%
X79000000Y-114500000D03*
X72838972Y-116661028D03*
%TO.N,/BUZZER*%
X79500000Y-32500000D03*
X79601000Y-77000000D03*
X79000000Y-75500000D03*
X79000000Y-98500000D03*
X79500000Y-40500000D03*
%TO.N,/LED_R*%
X72500000Y-80000000D03*
%TO.N,/LED_B*%
X72500000Y-85000000D03*
%TO.N,/LED_G*%
X72500000Y-82500000D03*
%TO.N,/A3_PWM*%
X137000000Y-113000000D03*
X137000000Y-111500000D03*
X71750000Y-113750000D03*
%TO.N,/L_IN_2*%
X93859000Y-97141000D03*
X98000000Y-88000000D03*
%TO.N,/R_IN_2*%
X92750000Y-88500000D03*
X96250000Y-82750000D03*
X97250000Y-97250000D03*
X99000000Y-105750000D03*
X96250000Y-92000000D03*
X96250000Y-84500000D03*
%TO.N,/R_IN_1*%
X93000000Y-89750000D03*
X98000000Y-105750000D03*
X97750000Y-84500000D03*
X96250000Y-93000000D03*
X96250000Y-97500000D03*
%TO.N,/L_IN_1*%
X97000000Y-106000000D03*
X96500000Y-99000000D03*
%TO.N,/A1_IN_1*%
X109000000Y-100000000D03*
X108750000Y-105750000D03*
X109000000Y-86500000D03*
X106500000Y-77000000D03*
%TO.N,/A1_IN_2*%
X110500000Y-100000000D03*
X110500000Y-86500000D03*
X110327210Y-105672790D03*
X107500000Y-77000000D03*
%TO.N,/A2_IN_1*%
X107172211Y-105827789D03*
X107500000Y-100000000D03*
X107500000Y-86500000D03*
X105750000Y-78500000D03*
%TO.N,/A2_IN_2*%
X105500000Y-106000000D03*
X105000000Y-81000000D03*
X106000000Y-100000000D03*
X106000000Y-86500000D03*
%TO.N,/A4_PWM*%
X71000000Y-116000000D03*
X103500000Y-126500000D03*
X72000000Y-122000000D03*
%TO.N,/A4_IN_1*%
X103500000Y-128500000D03*
X70000000Y-122000000D03*
X73250000Y-87250000D03*
X79000000Y-85500000D03*
X69000000Y-116000000D03*
%TO.N,/A4_IN_2*%
X103500000Y-127500000D03*
X71000000Y-122000000D03*
X72500000Y-93500000D03*
X70000000Y-116000000D03*
%TO.N,/A3_IN_2*%
X87500000Y-80500000D03*
X94000000Y-80500000D03*
X91500000Y-80500000D03*
X82500000Y-77000000D03*
X82500000Y-74500000D03*
%TO.N,/A3_IN_1*%
X83000000Y-66000000D03*
X92500000Y-74500000D03*
%TD*%
D29*
%TO.N,GND*%
X119959000Y-79769000D02*
X119959000Y-74151000D01*
X148977000Y-112673000D02*
X148977000Y-84877000D01*
X92750000Y-92750000D02*
X94500000Y-91000000D01*
X92750000Y-97250000D02*
X92750000Y-92750000D01*
X94500000Y-90500000D02*
X97601000Y-87399000D01*
X147826000Y-81774000D02*
X147826000Y-64476000D01*
X84000000Y-38000000D02*
X84000000Y-37000000D01*
X101950000Y-73758000D02*
X101950000Y-82500000D01*
X144750000Y-43750000D02*
X140000000Y-39000000D01*
X41104000Y-116524000D02*
X37476000Y-116524000D01*
X74000000Y-37500000D02*
X78000000Y-41500000D01*
X148977000Y-84877000D02*
X146850000Y-82750000D01*
X134949000Y-33949000D02*
X140000000Y-39000000D01*
X146600000Y-63250000D02*
X148727000Y-61123000D01*
X117750000Y-33250000D02*
X87750000Y-33250000D01*
X94500000Y-91000000D02*
X94500000Y-90500000D01*
X78000000Y-41500000D02*
X80500000Y-41500000D01*
X119959000Y-74151000D02*
X120960000Y-73150000D01*
D30*
X61001000Y-32899000D02*
X73641640Y-32899000D01*
D29*
X119500000Y-35000000D02*
X120551000Y-33949000D01*
D30*
X74000000Y-33257360D02*
X74000000Y-37500000D01*
D29*
X147000000Y-114650000D02*
X148977000Y-112673000D01*
X120960000Y-80770000D02*
X119959000Y-79769000D01*
X103602000Y-72106000D02*
X101950000Y-73758000D01*
D30*
X56400000Y-37500000D02*
X61001000Y-32899000D01*
D29*
X148727000Y-61123000D02*
X148727000Y-45877000D01*
X146850000Y-82750000D02*
X147826000Y-81774000D01*
X87750000Y-33250000D02*
X84000000Y-37000000D01*
X119500000Y-35000000D02*
X117750000Y-33250000D01*
D30*
X73641640Y-32899000D02*
X74000000Y-33257360D01*
D29*
X97601000Y-87205000D02*
X99000000Y-85806000D01*
X120551000Y-33949000D02*
X134949000Y-33949000D01*
X147826000Y-64476000D02*
X146600000Y-63250000D01*
X102602000Y-85806000D02*
X103602000Y-84806000D01*
X99000000Y-85806000D02*
X102602000Y-85806000D01*
X48742000Y-108886000D02*
X41104000Y-116524000D01*
X97601000Y-87399000D02*
X97601000Y-87205000D01*
X74500000Y-37000000D02*
X74000000Y-37500000D01*
X80500000Y-41500000D02*
X84000000Y-38000000D01*
X148727000Y-45877000D02*
X146600000Y-43750000D01*
X139500000Y-71500000D02*
X141250000Y-69750000D01*
X146600000Y-43750000D02*
X144750000Y-43750000D01*
%TO.N,/BMS_IN_1*%
X91500000Y-37000000D02*
X96750000Y-37000000D01*
X96750000Y-37000000D02*
X98250000Y-38500000D01*
%TO.N,/BMS_1*%
X105880000Y-35000000D02*
X105880000Y-38490000D01*
X105880000Y-38490000D02*
X105870000Y-38500000D01*
X109000000Y-69500000D02*
X109000000Y-82500000D01*
%TO.N,/BMS_IN_2*%
X91000000Y-35000000D02*
X89000000Y-37000000D01*
X107570000Y-33750000D02*
X108820000Y-35000000D01*
X98260000Y-35000000D02*
X99510000Y-33750000D01*
X98260000Y-35000000D02*
X91000000Y-35000000D01*
X99510000Y-33750000D02*
X107570000Y-33750000D01*
%TO.N,/BMS_2*%
X110500000Y-69500000D02*
X110500000Y-82500000D01*
X116440000Y-35000000D02*
X116440000Y-38500000D01*
%TO.N,/BMS_IN_3*%
X107570000Y-39750000D02*
X89250000Y-39750000D01*
X108820000Y-38500000D02*
X107570000Y-39750000D01*
X118250000Y-39750000D02*
X110070000Y-39750000D01*
X89250000Y-39750000D02*
X86500000Y-37000000D01*
X119500000Y-38500000D02*
X118250000Y-39750000D01*
X110070000Y-39750000D02*
X108820000Y-38500000D01*
%TO.N,/BMS_3*%
X112500000Y-69500000D02*
X112500000Y-82500000D01*
X127120000Y-35000000D02*
X127120000Y-38500000D01*
%TO.N,/L_PWM*%
X77568000Y-108000000D02*
X74142000Y-111426000D01*
X79000000Y-108000000D02*
X77568000Y-108000000D01*
X94594421Y-103405579D02*
X90000000Y-108000000D01*
X94860000Y-103405579D02*
X94594421Y-103405579D01*
%TO.N,/A2_B*%
X39000000Y-90250000D02*
X40000000Y-90250000D01*
X40000000Y-90250000D02*
X43000000Y-87250000D01*
X43000000Y-87250000D02*
X43250000Y-87000000D01*
%TO.N,/SDA*%
X74142000Y-88566000D02*
X73038914Y-88566000D01*
X91106579Y-99601000D02*
X91106579Y-99606579D01*
X81751057Y-65601000D02*
X94666478Y-78516421D01*
X73038914Y-88566000D02*
X71500000Y-87027086D01*
X91106579Y-99606579D02*
X91547000Y-100047000D01*
X96453000Y-100047000D02*
X100500000Y-96000000D01*
X71500000Y-87027086D02*
X71500000Y-79500000D01*
X91547000Y-100047000D02*
X96453000Y-100047000D01*
X99983579Y-78516421D02*
X101250000Y-77250000D01*
X94666478Y-78516421D02*
X99983579Y-78516421D01*
X72101000Y-65601000D02*
X81751057Y-65601000D01*
X71825029Y-65325029D02*
X72101000Y-65601000D01*
X100500000Y-96000000D02*
X100500000Y-87000000D01*
X90000000Y-98494421D02*
X91106579Y-99601000D01*
D31*
%TO.N,/A3_OUT_2*%
X119840661Y-111438001D02*
X121992660Y-113590000D01*
X146600000Y-73250000D02*
X119840661Y-100009339D01*
X119840661Y-100009339D02*
X119840661Y-111438001D01*
D29*
%TO.N,/A3_B*%
X87601000Y-86248943D02*
X82633522Y-91216421D01*
X79601000Y-92185054D02*
X80393027Y-91393027D01*
X52566000Y-115250000D02*
X76599944Y-115250000D01*
X119293757Y-83555000D02*
X120848757Y-82000000D01*
X87000000Y-83555000D02*
X87601000Y-84156000D01*
X87601000Y-84156000D02*
X87601000Y-86248943D01*
X52408000Y-115092000D02*
X52566000Y-115250000D01*
X79601000Y-112248943D02*
X79601000Y-92185054D01*
X82633522Y-91216421D02*
X80569634Y-91216421D01*
X76599944Y-115250000D02*
X77924972Y-113924972D01*
X80393027Y-91393027D02*
X79601000Y-92185055D01*
X92000000Y-83555000D02*
X119293757Y-83555000D01*
X52408000Y-115092000D02*
X48742000Y-111426000D01*
X79601000Y-112248943D02*
X77924972Y-113924972D01*
X120848757Y-82000000D02*
X126000000Y-82000000D01*
X80569634Y-91216421D02*
X80393027Y-91393027D01*
%TO.N,/A3_A*%
X47500000Y-103250000D02*
X47500000Y-105104000D01*
X102918100Y-86057000D02*
X102000000Y-86975100D01*
X125689000Y-84311000D02*
X105866182Y-84311000D01*
X105866182Y-84311000D02*
X104120182Y-86057000D01*
X79184579Y-90815421D02*
X75000000Y-95000000D01*
X75000000Y-95000000D02*
X56750000Y-95000000D01*
X56750000Y-95000000D02*
X49250000Y-102500000D01*
X48250000Y-102500000D02*
X47500000Y-103250000D01*
X47500000Y-105104000D02*
X48742000Y-106346000D01*
X82184579Y-90815421D02*
X79184579Y-90815421D01*
X102000000Y-86975100D02*
X102000000Y-92000000D01*
X87000000Y-86000000D02*
X82184579Y-90815421D01*
X104120182Y-86057000D02*
X102918100Y-86057000D01*
X49250000Y-102500000D02*
X48250000Y-102500000D01*
X126000000Y-84000000D02*
X125689000Y-84311000D01*
%TO.N,/R_PWM*%
X77000000Y-120250000D02*
X77041000Y-120209000D01*
X77041000Y-120209000D02*
X93279498Y-120209000D01*
X72000000Y-118750000D02*
X73500000Y-120250000D01*
X72000000Y-117000000D02*
X72000000Y-118750000D01*
X93279498Y-120209000D02*
X94827340Y-118661158D01*
X73500000Y-120250000D02*
X77000000Y-120250000D01*
D31*
%TO.N,/A3_OUT_1*%
X120741660Y-109799000D02*
X121992660Y-111050000D01*
X146600000Y-75750000D02*
X120741660Y-101608340D01*
X120741660Y-101608340D02*
X120741660Y-109799000D01*
%TO.N,/A4_OUT_1*%
X133466081Y-104656579D02*
X121992660Y-116130000D01*
X137443421Y-104656579D02*
X133466081Y-104656579D01*
X146850000Y-95250000D02*
X137443421Y-104656579D01*
D29*
%TO.N,/A1_A*%
X41250000Y-78534000D02*
X48742000Y-86026000D01*
X39000000Y-68250000D02*
X41250000Y-70500000D01*
X41250000Y-70500000D02*
X41250000Y-78534000D01*
%TO.N,/R_B*%
X74000000Y-64000000D02*
X131350000Y-64000000D01*
X131350000Y-64000000D02*
X146600000Y-48750000D01*
%TO.N,/A1_PWM*%
X72750000Y-112000000D02*
X72750000Y-105198000D01*
X79000000Y-109000000D02*
X78500000Y-109000000D01*
X94055421Y-104944579D02*
X91000000Y-108000000D01*
X74750000Y-112750000D02*
X73500000Y-112750000D01*
X114910000Y-103405579D02*
X113371000Y-104944579D01*
X78500000Y-109000000D02*
X74750000Y-112750000D01*
X72750000Y-105198000D02*
X74142000Y-103806000D01*
X113371000Y-104944579D02*
X94055421Y-104944579D01*
X73500000Y-112750000D02*
X72750000Y-112000000D01*
%TO.N,/STNDBY*%
X84000000Y-101000000D02*
X82500000Y-99500000D01*
X82500000Y-92000000D02*
X82500000Y-98224585D01*
X86077579Y-119808000D02*
X81692000Y-119808000D01*
X82307288Y-114591000D02*
X87349000Y-109549288D01*
X125000000Y-110000000D02*
X126000000Y-109000000D01*
X81566793Y-119808000D02*
X80859000Y-119100207D01*
X81000000Y-87274421D02*
X82500000Y-88774421D01*
X80859000Y-115641000D02*
X81909000Y-114591000D01*
X81909000Y-114591000D02*
X82307288Y-114591000D01*
X94860000Y-111025579D02*
X86077579Y-119808000D01*
X87349000Y-109549288D02*
X87349000Y-101151000D01*
X80859000Y-119100207D02*
X80859000Y-115641000D01*
X82500000Y-99500000D02*
X82500000Y-98224585D01*
X81692000Y-119808000D02*
X81566793Y-119808000D01*
%TO.N,/SCL*%
X122250000Y-69250000D02*
X122250000Y-74400000D01*
X101279409Y-96220591D02*
X101279409Y-86720591D01*
X88999000Y-98909049D02*
X90537951Y-100448000D01*
X88999000Y-98079793D02*
X88999000Y-98909049D01*
X97052000Y-100448000D02*
X101279409Y-96220591D01*
X74875000Y-63125000D02*
X75000000Y-63000000D01*
X89585372Y-97493421D02*
X88999000Y-98079793D01*
X122250000Y-74400000D02*
X120960000Y-75690000D01*
X90537951Y-100448000D02*
X97052000Y-100448000D01*
X92540000Y-98494421D02*
X91539000Y-97493421D01*
X91539000Y-97493421D02*
X89585372Y-97493421D01*
X75000000Y-63000000D02*
X121250000Y-63000000D01*
%TO.N,/A1_B*%
X40750000Y-80574000D02*
X48742000Y-88566000D01*
X40750000Y-72500000D02*
X40750000Y-80574000D01*
X39000000Y-70750000D02*
X40750000Y-72500000D01*
%TO.N,/R_A*%
X133000000Y-65000000D02*
X146600000Y-51400000D01*
X73000000Y-65000000D02*
X133000000Y-65000000D01*
X146600000Y-51400000D02*
X146600000Y-51250000D01*
%TO.N,+3V3*%
X80254976Y-75245024D02*
X78759952Y-73750001D01*
X78759952Y-73750001D02*
X78759952Y-73750000D01*
X87000000Y-76000000D02*
X81009951Y-76000000D01*
X87460000Y-96540000D02*
X97000000Y-87000000D01*
X78759952Y-73750000D02*
X53982000Y-73750000D01*
X81009951Y-76000000D02*
X80254976Y-75245024D01*
X53982000Y-73750000D02*
X51866000Y-75866000D01*
X87460000Y-98494421D02*
X87460000Y-96540000D01*
D31*
%TO.N,/A4_OUT_2*%
X148326000Y-94226000D02*
X148326000Y-96168002D01*
X137297423Y-107196579D02*
X133449000Y-107196579D01*
X133449000Y-107196579D02*
X121960000Y-118685579D01*
X148326000Y-96168002D02*
X137297423Y-107196579D01*
X146850000Y-92750000D02*
X148326000Y-94226000D01*
D29*
%TO.N,/L_A*%
X41000000Y-64500000D02*
X51000000Y-74500000D01*
X51000000Y-74500000D02*
X51000000Y-96468000D01*
X39000000Y-49000000D02*
X41000000Y-51000000D01*
X51000000Y-96468000D02*
X48742000Y-98726000D01*
X41000000Y-51000000D02*
X41000000Y-64500000D01*
%TO.N,/L_B*%
X48742000Y-101266000D02*
X50250000Y-99758000D01*
X39000000Y-51500000D02*
X40500000Y-53000000D01*
X50250000Y-74500000D02*
X50250000Y-94750000D01*
X40500000Y-64750000D02*
X50250000Y-74500000D01*
X40500000Y-53000000D02*
X40500000Y-64750000D01*
%TO.N,/A4_A*%
X135000000Y-101000000D02*
X136000000Y-101000000D01*
X80125000Y-113625000D02*
X80000000Y-113750000D01*
X55343000Y-110407000D02*
X48742000Y-103806000D01*
X80000000Y-116000000D02*
X76500000Y-119500000D01*
X136000000Y-101000000D02*
X140000000Y-97000000D01*
X125000000Y-111000000D02*
X135000000Y-101000000D01*
X80000000Y-113750000D02*
X80000000Y-116000000D01*
X76500000Y-119500000D02*
X75750000Y-119500000D01*
%TO.N,/A4_B*%
X79000000Y-110000000D02*
X78108000Y-110000000D01*
X78108000Y-110000000D02*
X74142000Y-113966000D01*
X124000000Y-110000000D02*
X140000000Y-94000000D01*
%TO.N,/A2_A*%
X40250000Y-87750000D02*
X42125000Y-85875000D01*
X39000000Y-87750000D02*
X40250000Y-87750000D01*
X42125000Y-85875000D02*
X43250000Y-84750000D01*
%TO.N,/A2_PWM*%
X73500000Y-117750000D02*
X72838972Y-117088972D01*
X79000000Y-114500000D02*
X75750000Y-117750000D01*
X75750000Y-117750000D02*
X73500000Y-117750000D01*
X72838972Y-117088972D02*
X72838972Y-116661028D01*
%TO.N,/BUZZER*%
X79601000Y-76101000D02*
X79000000Y-75500000D01*
X79000000Y-98500000D02*
X78774000Y-98726000D01*
X79500000Y-32500000D02*
X79500000Y-40500000D01*
X78774000Y-98726000D02*
X74142000Y-98726000D01*
X79601000Y-77000000D02*
X79601000Y-76101000D01*
%TO.N,/LED_R*%
X81000000Y-79654421D02*
X72845579Y-79654421D01*
X72845579Y-79654421D02*
X72500000Y-80000000D01*
%TO.N,/LED_B*%
X81000000Y-84734421D02*
X72765579Y-84734421D01*
X72765579Y-84734421D02*
X72500000Y-85000000D01*
%TO.N,/LED_G*%
X81000000Y-82194421D02*
X72805579Y-82194421D01*
X72805579Y-82194421D02*
X72500000Y-82500000D01*
D31*
%TO.N,/L_OUT_2*%
X80641660Y-110531818D02*
X80641660Y-112339000D01*
X84078199Y-99421801D02*
X85000000Y-100343602D01*
X83669000Y-97976238D02*
X83669000Y-99012603D01*
X43000000Y-50500000D02*
X43000000Y-62500000D01*
X83669000Y-99012603D02*
X84078199Y-99421801D01*
X81412478Y-109761000D02*
X80641660Y-110531818D01*
X47750000Y-67250000D02*
X81000000Y-67250000D01*
X85000000Y-100343602D02*
X85000000Y-107250000D01*
X83822619Y-97822619D02*
X83669000Y-97976238D01*
X80641660Y-112339000D02*
X81892660Y-113590000D01*
X39000000Y-46500000D02*
X43000000Y-50500000D01*
X85000000Y-107250000D02*
X82489000Y-109761000D01*
X43000000Y-62500000D02*
X47750000Y-67250000D01*
X81000000Y-67250000D02*
X89000000Y-75250000D01*
X82489000Y-109761000D02*
X81412478Y-109761000D01*
X89000000Y-75250000D02*
X89000000Y-92645239D01*
X84078199Y-99421801D02*
X84656397Y-100000000D01*
X89000000Y-92645239D02*
X83822619Y-97822619D01*
%TO.N,/L_OUT_1*%
X81892660Y-111050000D02*
X82953320Y-111050000D01*
X48123206Y-66349000D02*
X43901000Y-62126794D01*
X81373207Y-66349001D02*
X48123206Y-66349000D01*
X86171000Y-107832320D02*
X86171000Y-96829000D01*
X90000000Y-74975794D02*
X81373207Y-66349001D01*
X90000000Y-93000000D02*
X90000000Y-74975794D01*
X86171000Y-96829000D02*
X90000000Y-93000000D01*
X82953320Y-111050000D02*
X86171000Y-107832320D01*
X43901000Y-48901000D02*
X39000000Y-44000000D01*
X43901000Y-62126794D02*
X43901000Y-48901000D01*
%TO.N,/R_OUT_2*%
X116000000Y-102000000D02*
X92274206Y-102000000D01*
X92274206Y-102000000D02*
X92137103Y-102137103D01*
X146600000Y-53750000D02*
X148076000Y-55226000D01*
X144000000Y-74000000D02*
X116000000Y-102000000D01*
X89137103Y-111408476D02*
X81860000Y-118685579D01*
X148076000Y-55226000D02*
X148076000Y-57924000D01*
X89137103Y-105137103D02*
X89137103Y-111408476D01*
X92137103Y-102137103D02*
X89137103Y-105137103D01*
X148076000Y-57924000D02*
X144000000Y-62000000D01*
X144000000Y-62000000D02*
X144000000Y-74000000D01*
%TO.N,/R_OUT_1*%
X88000000Y-105000000D02*
X91750000Y-101250000D01*
X143000000Y-73500000D02*
X143000000Y-59850000D01*
X143000000Y-59850000D02*
X146600000Y-56250000D01*
X88000000Y-110022660D02*
X88000000Y-105000000D01*
X115401000Y-101099000D02*
X91901000Y-101099000D01*
X91901000Y-101099000D02*
X91750000Y-101250000D01*
X116199182Y-100300818D02*
X115401000Y-101099000D01*
X81892660Y-116130000D02*
X88000000Y-110022660D01*
X116199182Y-100300818D02*
X143000000Y-73500000D01*
%TO.N,/A1_OUT_1*%
X33250000Y-126918319D02*
X33250000Y-69000000D01*
X104995658Y-114102998D02*
X104995658Y-122474596D01*
X35632681Y-129301000D02*
X33250000Y-126918319D01*
X33250000Y-69000000D02*
X39000000Y-63250000D01*
X102485127Y-124985127D02*
X98169254Y-129301000D01*
X98169254Y-129301000D02*
X35632681Y-129301000D01*
X104995658Y-122474596D02*
X101819254Y-125651000D01*
X101942660Y-111050000D02*
X104995658Y-114102998D01*
%TO.N,/A1_OUT_2*%
X34273001Y-117850727D02*
X42172274Y-125750000D01*
X104094659Y-122101389D02*
X104094659Y-115741999D01*
X39000000Y-65750000D02*
X34273001Y-70476999D01*
X100446048Y-125750000D02*
X104094659Y-122101389D01*
X42172274Y-125750000D02*
X100446048Y-125750000D01*
X34273001Y-70476999D02*
X34273001Y-117850727D01*
X104094659Y-115741999D02*
X101942660Y-113590000D01*
%TO.N,/A2_OUT_1*%
X100072842Y-124849000D02*
X42545480Y-124849000D01*
X103193660Y-121728182D02*
X100072842Y-124849000D01*
X103193660Y-117381000D02*
X103193660Y-121728182D01*
X101942660Y-116130000D02*
X103193660Y-117381000D01*
X35174001Y-86575999D02*
X39000000Y-82750000D01*
X42545480Y-124849000D02*
X35174001Y-117477521D01*
X35174001Y-117477521D02*
X35174001Y-86575999D01*
%TO.N,/A2_OUT_2*%
X96647578Y-123948000D02*
X98172789Y-122422789D01*
X36075000Y-117104314D02*
X42918686Y-123948000D01*
X36075000Y-88175000D02*
X36075000Y-117104314D01*
X39000000Y-85250000D02*
X36075000Y-88175000D01*
X42918686Y-123948000D02*
X96647578Y-123948000D01*
X98172789Y-122422789D02*
X101910000Y-118685579D01*
D29*
%TO.N,/CAM_TX*%
X49158057Y-100000000D02*
X70752057Y-78406000D01*
X47750000Y-100000000D02*
X49158057Y-100000000D01*
X38393951Y-107625000D02*
X40125000Y-107625000D01*
X72250000Y-78406000D02*
X74142000Y-78406000D01*
X40125000Y-107625000D02*
X47750000Y-100000000D01*
X37749000Y-105275000D02*
X37749000Y-106980049D01*
X37749000Y-106980049D02*
X38393951Y-107625000D01*
X70752057Y-78406000D02*
X72250000Y-78406000D01*
X39000000Y-104024000D02*
X37749000Y-105275000D01*
%TO.N,/CAM_RX*%
X48742000Y-96782000D02*
X48742000Y-96186000D01*
X39000000Y-106524000D02*
X48742000Y-96782000D01*
%TO.N,/A3_PWM*%
X71750000Y-98578000D02*
X71750000Y-113750000D01*
X74142000Y-96186000D02*
X71750000Y-98578000D01*
X137000000Y-113000000D02*
X137000000Y-111500000D01*
%TO.N,/L_IN_2*%
X93859000Y-93141000D02*
X98000000Y-89000000D01*
X98000000Y-89000000D02*
X98000000Y-88000000D01*
X93859000Y-97141000D02*
X93859000Y-93141000D01*
%TO.N,/R_IN_2*%
X94860000Y-116105579D02*
X99000000Y-111965579D01*
X99000000Y-111965579D02*
X99000000Y-105750000D01*
X97250000Y-97250000D02*
X97250000Y-93000000D01*
X92750000Y-88500000D02*
X92750000Y-88000000D01*
X92750000Y-88000000D02*
X96250000Y-84500000D01*
X96250000Y-82750000D02*
X96250000Y-82404421D01*
X97250000Y-93000000D02*
X96250000Y-92000000D01*
X96250000Y-82404421D02*
X99000000Y-79654421D01*
%TO.N,/R_IN_1*%
X94860000Y-113565579D02*
X97750000Y-110675579D01*
X93000000Y-89250000D02*
X97750000Y-84500000D01*
X98000000Y-110425579D02*
X98000000Y-105750000D01*
X96250000Y-97500000D02*
X96250000Y-93000000D01*
X93000000Y-89750000D02*
X93000000Y-89250000D01*
X97750000Y-110675579D02*
X98000000Y-110425579D01*
%TO.N,/L_IN_1*%
X94860000Y-108485579D02*
X97000000Y-106345579D01*
X96500000Y-99000000D02*
X100001000Y-95499000D01*
X100001000Y-88275421D02*
X99000000Y-87274421D01*
X100001000Y-95499000D02*
X100001000Y-88275421D01*
X97000000Y-106345579D02*
X97000000Y-106000000D01*
%TO.N,/A1_IN_1*%
X111514421Y-108485579D02*
X111500000Y-108500000D01*
X109000000Y-100000000D02*
X109000000Y-86500000D01*
X111500000Y-108500000D02*
X108750000Y-105750000D01*
X97598000Y-68599921D02*
X97598000Y-75712421D01*
X98283921Y-67914000D02*
X97598000Y-68599921D01*
X105019100Y-67914000D02*
X98283921Y-67914000D01*
X97598000Y-75712421D02*
X99000000Y-77114421D01*
X106500000Y-77000000D02*
X106500000Y-69394900D01*
X114910000Y-108485579D02*
X111514421Y-108485579D01*
X106500000Y-69394900D02*
X105019100Y-67914000D01*
%TO.N,/A1_IN_2*%
X100001000Y-77529049D02*
X100001000Y-75575421D01*
X107500000Y-69827800D02*
X105185200Y-67513000D01*
X110600000Y-105945579D02*
X110327210Y-105672790D01*
X100001000Y-75575421D02*
X99000000Y-74574421D01*
X110500000Y-100000000D02*
X110500000Y-86500000D01*
X97197000Y-68433821D02*
X97197000Y-76727049D01*
X107500000Y-77000000D02*
X107500000Y-69827800D01*
X97197000Y-76727049D02*
X98585372Y-78115421D01*
X98585372Y-78115421D02*
X99414628Y-78115421D01*
X98117821Y-67513000D02*
X97197000Y-68433821D01*
X99414628Y-78115421D02*
X100001000Y-77529049D01*
X114910000Y-105945579D02*
X110600000Y-105945579D01*
X105185200Y-67513000D02*
X98117821Y-67513000D01*
%TO.N,/A2_IN_1*%
X105750000Y-69212000D02*
X104853000Y-68315000D01*
X107500000Y-100000000D02*
X107500000Y-86500000D01*
X98450021Y-68315000D02*
X97999000Y-68766021D01*
X104853000Y-68315000D02*
X98450021Y-68315000D01*
X105750000Y-78500000D02*
X105750000Y-69212000D01*
X114910000Y-113565579D02*
X107172211Y-105827789D01*
X97999000Y-71033421D02*
X99000000Y-72034421D01*
X97999000Y-68766021D02*
X97999000Y-71033421D01*
%TO.N,/A2_IN_2*%
X114910000Y-116105579D02*
X105500000Y-106695579D01*
X105500000Y-106695579D02*
X105500000Y-106000000D01*
X106000000Y-91000000D02*
X106000000Y-86500000D01*
X100322579Y-70817000D02*
X99000000Y-69494421D01*
X106000000Y-100000000D02*
X106000000Y-91000000D01*
X105000000Y-70964000D02*
X104853000Y-70817000D01*
X105000000Y-81000000D02*
X105000000Y-70964000D01*
X104853000Y-70817000D02*
X100322579Y-70817000D01*
%TO.N,/A4_PWM*%
X127088498Y-126500000D02*
X103500000Y-126500000D01*
X134927340Y-118661158D02*
X127088498Y-126500000D01*
X71000000Y-116000000D02*
X71000000Y-121000000D01*
X72000000Y-122000000D02*
X71000000Y-121000000D01*
%TO.N,/A4_IN_1*%
X129628307Y-128500000D02*
X103500000Y-128500000D01*
X136362000Y-114967579D02*
X136362000Y-121766307D01*
X73250000Y-87250000D02*
X77250000Y-87250000D01*
X134960000Y-113565579D02*
X136362000Y-114967579D01*
X136362000Y-121766307D02*
X129628307Y-128500000D01*
X70000000Y-122000000D02*
X69000000Y-121000000D01*
X77250000Y-87250000D02*
X79000000Y-85500000D01*
X69000000Y-121000000D02*
X69000000Y-116000000D01*
%TO.N,/A4_IN_2*%
X70000000Y-121000000D02*
X70000000Y-116000000D01*
X135961000Y-121600207D02*
X130061207Y-127500000D01*
X74750000Y-92071055D02*
X80821055Y-86000000D01*
X81150049Y-86000000D02*
X82001000Y-85149049D01*
X134960000Y-116105579D02*
X135961000Y-117106579D01*
X80821055Y-86000000D02*
X81150049Y-86000000D01*
X72500000Y-93500000D02*
X73750000Y-92250000D01*
X74750000Y-92250000D02*
X74750000Y-92071055D01*
X135961000Y-117106579D02*
X135961000Y-121600207D01*
X71000000Y-122000000D02*
X70000000Y-121000000D01*
X130061207Y-127500000D02*
X103500000Y-127500000D01*
X73750000Y-92250000D02*
X74750000Y-92250000D01*
X82001000Y-78115421D02*
X81000000Y-77114421D01*
X82001000Y-85149049D02*
X82001000Y-78115421D01*
%TO.N,/A3_IN_2*%
X86000000Y-80500000D02*
X87500000Y-80500000D01*
X82500000Y-77000000D02*
X86000000Y-80500000D01*
X91500000Y-80500000D02*
X94000000Y-80500000D01*
X81000000Y-72034421D02*
X82500000Y-73534421D01*
X82500000Y-73534421D02*
X82500000Y-74500000D01*
%TO.N,/A3_IN_1*%
X92500000Y-74500000D02*
X84000000Y-66000000D01*
X84000000Y-66000000D02*
X83000000Y-66000000D01*
%TD*%
M02*
