%TF.GenerationSoftware,KiCad,Pcbnew,9.0.2*%
%TF.CreationDate,2026-03-11T19:14:41+01:00*%
%TF.ProjectId,Cody,436f6479-2e6b-4696-9361-645f70636258,rev?*%
%TF.SameCoordinates,Original*%
%TF.FileFunction,Plated,1,2,PTH,Drill*%
%TF.FilePolarity,Positive*%
%FSLAX46Y46*%
G04 Gerber Fmt 4.6, Leading zero omitted, Abs format (unit mm)*
G04 Created by KiCad (PCBNEW 9.0.2) date 2026-03-11 19:14:41*
%MOMM*%
%LPD*%
G01*
G04 APERTURE LIST*
%TA.AperFunction,ViaDrill*%
%ADD10C,0.400000*%
%TD*%
%TA.AperFunction,ComponentDrill*%
%ADD11C,0.800000*%
%TD*%
%TA.AperFunction,ComponentDrill*%
%ADD12C,0.900000*%
%TD*%
%TA.AperFunction,ComponentDrill*%
%ADD13C,0.950000*%
%TD*%
%TA.AperFunction,ComponentDrill*%
%ADD14C,1.000000*%
%TD*%
%TA.AperFunction,ComponentDrill*%
%ADD15C,1.040000*%
%TD*%
%TA.AperFunction,ComponentDrill*%
%ADD16C,1.050000*%
%TD*%
%TA.AperFunction,ComponentDrill*%
%ADD17C,1.200000*%
%TD*%
%TA.AperFunction,ComponentDrill*%
%ADD18C,4.500000*%
%TD*%
G04 APERTURE END LIST*
D10*
X43250000Y-84750000D03*
X43250000Y-87000000D03*
X50250000Y-94750000D03*
X50250000Y-99758000D03*
X51866000Y-75866000D03*
X55343000Y-110407000D03*
X69000000Y-116000000D03*
X70000000Y-116000000D03*
X70000000Y-122000000D03*
X71000000Y-116000000D03*
X71000000Y-122000000D03*
X71500000Y-79500000D03*
X71750000Y-113750000D03*
X71825029Y-65325029D03*
X72000000Y-117000000D03*
X72000000Y-122000000D03*
X72500000Y-80000000D03*
X72500000Y-82500000D03*
X72500000Y-85000000D03*
X72500000Y-93500000D03*
X72838972Y-116661028D03*
X73000000Y-65000000D03*
X73250000Y-87250000D03*
X74000000Y-64000000D03*
X74875000Y-63125000D03*
X75750000Y-119500000D03*
X79000000Y-75500000D03*
X79000000Y-85500000D03*
X79000000Y-98500000D03*
X79000000Y-108000000D03*
X79000000Y-109000000D03*
X79000000Y-110000000D03*
X79000000Y-114500000D03*
X79500000Y-32500000D03*
X79500000Y-40500000D03*
X79601000Y-77000000D03*
X80125000Y-113625000D03*
X82500000Y-74500000D03*
X82500000Y-77000000D03*
X82500000Y-88774421D03*
X82500000Y-92000000D03*
X83000000Y-66000000D03*
X84000000Y-101000000D03*
X87000000Y-76000000D03*
X87000000Y-83555000D03*
X87000000Y-86000000D03*
X87349000Y-101151000D03*
X87500000Y-80500000D03*
X90000000Y-108000000D03*
X91000000Y-108000000D03*
X91500000Y-80500000D03*
X92000000Y-83555000D03*
X92500000Y-74500000D03*
X92750000Y-88500000D03*
X92750000Y-97250000D03*
X93000000Y-89750000D03*
X93859000Y-97141000D03*
X94000000Y-80500000D03*
X96250000Y-82750000D03*
X96250000Y-84500000D03*
X96250000Y-92000000D03*
X96250000Y-93000000D03*
X96250000Y-97500000D03*
X96500000Y-99000000D03*
X97000000Y-87000000D03*
X97000000Y-106000000D03*
X97250000Y-97250000D03*
X97750000Y-84500000D03*
X98000000Y-88000000D03*
X98000000Y-105750000D03*
X99000000Y-105750000D03*
X100500000Y-87000000D03*
X101250000Y-77250000D03*
X101279409Y-86720591D03*
X101950000Y-82500000D03*
X102000000Y-92000000D03*
X103500000Y-126500000D03*
X103500000Y-127500000D03*
X103500000Y-128500000D03*
X105000000Y-81000000D03*
X105500000Y-106000000D03*
X105750000Y-78500000D03*
X106000000Y-86500000D03*
X106000000Y-100000000D03*
X106500000Y-77000000D03*
X107172211Y-105827789D03*
X107500000Y-77000000D03*
X107500000Y-86500000D03*
X107500000Y-100000000D03*
X108750000Y-105750000D03*
X109000000Y-69500000D03*
X109000000Y-82500000D03*
X109000000Y-86500000D03*
X109000000Y-100000000D03*
X110327210Y-105672790D03*
X110500000Y-69500000D03*
X110500000Y-82500000D03*
X110500000Y-86500000D03*
X110500000Y-100000000D03*
X112500000Y-69500000D03*
X112500000Y-82500000D03*
X121250000Y-63000000D03*
X122250000Y-69250000D03*
X124000000Y-110000000D03*
X125000000Y-110000000D03*
X125000000Y-111000000D03*
X126000000Y-82000000D03*
X126000000Y-84000000D03*
X126000000Y-109000000D03*
X137000000Y-111500000D03*
X137000000Y-113000000D03*
X139500000Y-71500000D03*
X140000000Y-94000000D03*
X140000000Y-97000000D03*
X141250000Y-69750000D03*
D11*
%TO.C,R1*%
X98250000Y-38500000D03*
%TO.C,R2*%
X98260000Y-35000000D03*
%TO.C,R1*%
X105870000Y-38500000D03*
%TO.C,R2*%
X105880000Y-35000000D03*
%TO.C,R3*%
X108820000Y-35000000D03*
%TO.C,R4*%
X108820000Y-38500000D03*
%TO.C,R3*%
X116440000Y-35000000D03*
%TO.C,R4*%
X116440000Y-38500000D03*
%TO.C,R6*%
X119500000Y-35000000D03*
%TO.C,R5*%
X119500000Y-38500000D03*
%TO.C,R6*%
X127120000Y-35000000D03*
%TO.C,R5*%
X127120000Y-38500000D03*
D12*
%TO.C,D1*%
X37476000Y-113476000D03*
X37476000Y-116524000D03*
X39000000Y-111698000D03*
X39000000Y-115000000D03*
D13*
%TO.C,J1*%
X39000000Y-44000000D03*
X39000000Y-46500000D03*
X39000000Y-49000000D03*
X39000000Y-51500000D03*
X39000000Y-54000000D03*
X39000000Y-56500000D03*
%TO.C,J5*%
X39000000Y-63250000D03*
X39000000Y-65750000D03*
X39000000Y-68250000D03*
X39000000Y-70750000D03*
X39000000Y-73250000D03*
X39000000Y-75750000D03*
%TO.C,J6*%
X39000000Y-82750000D03*
X39000000Y-85250000D03*
X39000000Y-87750000D03*
X39000000Y-90250000D03*
X39000000Y-92750000D03*
X39000000Y-95250000D03*
%TO.C,J7*%
X84000000Y-37000000D03*
X86500000Y-37000000D03*
X89000000Y-37000000D03*
X91500000Y-37000000D03*
%TO.C,J2*%
X146600000Y-43750000D03*
X146600000Y-46250000D03*
X146600000Y-48750000D03*
X146600000Y-51250000D03*
X146600000Y-53750000D03*
X146600000Y-56250000D03*
%TO.C,J3*%
X146600000Y-63250000D03*
X146600000Y-65750000D03*
X146600000Y-68250000D03*
X146600000Y-70750000D03*
X146600000Y-73250000D03*
X146600000Y-75750000D03*
%TO.C,J4*%
X146850000Y-82750000D03*
X146850000Y-85250000D03*
X146850000Y-87750000D03*
X146850000Y-90250000D03*
X146850000Y-92750000D03*
X146850000Y-95250000D03*
%TO.C,J15*%
X147000000Y-102150000D03*
X147000000Y-104650000D03*
X147000000Y-107150000D03*
X147000000Y-109650000D03*
X147000000Y-112150000D03*
X147000000Y-114650000D03*
X147000000Y-117150000D03*
D14*
%TO.C,J8*%
X39000000Y-104024000D03*
X39000000Y-106524000D03*
%TO.C,BZ1*%
X132400000Y-39000000D03*
X140000000Y-39000000D03*
D15*
%TO.C,U1*%
X48742000Y-75866000D03*
X48742000Y-78406000D03*
X48742000Y-80946000D03*
X48742000Y-83486000D03*
X48742000Y-86026000D03*
X48742000Y-88566000D03*
X48742000Y-91106000D03*
X48742000Y-93646000D03*
X48742000Y-96186000D03*
X48742000Y-98726000D03*
X48742000Y-101266000D03*
X48742000Y-103806000D03*
X48742000Y-106346000D03*
X48742000Y-108886000D03*
X48742000Y-111426000D03*
X48742000Y-113966000D03*
X48742000Y-116506000D03*
X48742000Y-119046000D03*
X48742000Y-121586000D03*
X74142000Y-75866000D03*
X74142000Y-78406000D03*
X74142000Y-80946000D03*
X74142000Y-83486000D03*
X74142000Y-86026000D03*
X74142000Y-88566000D03*
X74142000Y-91106000D03*
X74142000Y-93646000D03*
X74142000Y-96186000D03*
X74142000Y-98726000D03*
X74142000Y-101266000D03*
X74142000Y-103806000D03*
X74142000Y-106346000D03*
X74142000Y-108886000D03*
X74142000Y-111426000D03*
X74142000Y-113966000D03*
X74142000Y-116506000D03*
X74142000Y-119046000D03*
X74142000Y-121586000D03*
D16*
%TO.C,U6*%
X80971193Y-92349227D03*
X81000000Y-69494421D03*
X81000000Y-72034421D03*
X81000000Y-74574421D03*
X81000000Y-77114421D03*
X81000000Y-79654421D03*
X81000000Y-82194421D03*
X81000000Y-84734421D03*
X81000000Y-87274421D03*
X81000000Y-89814421D03*
%TO.C,U2*%
X81860000Y-118685579D03*
X81892660Y-103430000D03*
X81892660Y-105970000D03*
X81892660Y-108510000D03*
X81892660Y-111050000D03*
X81892660Y-113590000D03*
X81892660Y-116130000D03*
X81892660Y-121210000D03*
%TO.C,U6*%
X84920000Y-98494421D03*
X87460000Y-98494421D03*
X90000000Y-98494421D03*
X92540000Y-98494421D03*
%TO.C,U2*%
X94827340Y-118661158D03*
X94860000Y-103405579D03*
X94860000Y-105945579D03*
X94860000Y-108485579D03*
X94860000Y-111025579D03*
X94860000Y-113565579D03*
X94860000Y-116105579D03*
X94860000Y-121185579D03*
%TO.C,U6*%
X95080000Y-98494421D03*
X98971193Y-92349227D03*
X99000000Y-69494421D03*
X99000000Y-72034421D03*
X99000000Y-74574421D03*
X99000000Y-77114421D03*
X99000000Y-79654421D03*
X99000000Y-82194421D03*
X99000000Y-84734421D03*
X99000000Y-87274421D03*
X99000000Y-89814421D03*
%TO.C,U3*%
X101910000Y-118685579D03*
X101942660Y-103430000D03*
X101942660Y-105970000D03*
X101942660Y-108510000D03*
X101942660Y-111050000D03*
X101942660Y-113590000D03*
X101942660Y-116130000D03*
X101942660Y-121210000D03*
X114877340Y-118661158D03*
X114910000Y-103405579D03*
X114910000Y-105945579D03*
X114910000Y-108485579D03*
X114910000Y-111025579D03*
X114910000Y-113565579D03*
X114910000Y-116105579D03*
X114910000Y-121185579D03*
%TO.C,U5*%
X120954385Y-83310000D03*
X120960000Y-70610000D03*
X120960000Y-73150000D03*
X120960000Y-75690000D03*
X120960000Y-78230000D03*
X120960000Y-80770000D03*
X120960000Y-85850000D03*
X120960000Y-88390000D03*
X120960000Y-90930000D03*
X120960000Y-93470000D03*
%TO.C,U7*%
X121960000Y-118685579D03*
X121992660Y-103430000D03*
X121992660Y-105970000D03*
X121992660Y-108510000D03*
X121992660Y-111050000D03*
X121992660Y-113590000D03*
X121992660Y-116130000D03*
X121992660Y-121210000D03*
X134927340Y-118661158D03*
X134960000Y-103405579D03*
X134960000Y-105945579D03*
X134960000Y-108485579D03*
X134960000Y-111025579D03*
X134960000Y-113565579D03*
X134960000Y-116105579D03*
X134960000Y-121185579D03*
D17*
%TO.C,U4*%
X103602000Y-69566000D03*
X103602000Y-72106000D03*
X103602000Y-74646000D03*
X103602000Y-77186000D03*
X103602000Y-79726000D03*
X103602000Y-82266000D03*
X103602000Y-84806000D03*
X103602000Y-87346000D03*
X103602000Y-89886000D03*
X103602000Y-92426000D03*
D18*
%TO.C,J14*%
X49200000Y-37500000D03*
X56400000Y-37500000D03*
%TO.C,J13*%
X66800000Y-37500000D03*
X74000000Y-37500000D03*
M02*
