%TF.GenerationSoftware,KiCad,Pcbnew,9.0.2*%
%TF.CreationDate,2025-12-28T12:23:33+01:00*%
%TF.ProjectId,Cody,436f6479-2e6b-4696-9361-645f70636258,rev?*%
%TF.SameCoordinates,Original*%
%TF.FileFunction,Legend,Top*%
%TF.FilePolarity,Positive*%
%FSLAX46Y46*%
G04 Gerber Fmt 4.6, Leading zero omitted, Abs format (unit mm)*
G04 Created by KiCad (PCBNEW 9.0.2) date 2025-12-28 12:23:33*
%MOMM*%
%LPD*%
G01*
G04 APERTURE LIST*
%ADD10C,0.375000*%
%ADD11C,0.400000*%
%ADD12C,0.150000*%
%ADD13C,0.300000*%
%ADD14C,0.100000*%
%ADD15C,0.120000*%
%ADD16C,0.127000*%
G04 APERTURE END LIST*
D10*
X162368357Y-103571427D02*
X162368357Y-102857142D01*
X162796928Y-103714284D02*
X161296928Y-103214284D01*
X161296928Y-103214284D02*
X162796928Y-102714284D01*
X161796928Y-101571428D02*
X162796928Y-101571428D01*
X161225500Y-101928570D02*
X162296928Y-102285713D01*
X162296928Y-102285713D02*
X162296928Y-101357142D01*
D11*
X124376190Y-143734438D02*
X123233333Y-143734438D01*
X123804761Y-143734438D02*
X123804761Y-141734438D01*
X123804761Y-141734438D02*
X123614285Y-142020152D01*
X123614285Y-142020152D02*
X123423809Y-142210628D01*
X123423809Y-142210628D02*
X123233333Y-142305866D01*
X125138095Y-141924914D02*
X125233333Y-141829676D01*
X125233333Y-141829676D02*
X125423809Y-141734438D01*
X125423809Y-141734438D02*
X125900000Y-141734438D01*
X125900000Y-141734438D02*
X126090476Y-141829676D01*
X126090476Y-141829676D02*
X126185714Y-141924914D01*
X126185714Y-141924914D02*
X126280952Y-142115390D01*
X126280952Y-142115390D02*
X126280952Y-142305866D01*
X126280952Y-142305866D02*
X126185714Y-142591580D01*
X126185714Y-142591580D02*
X125042857Y-143734438D01*
X125042857Y-143734438D02*
X126280952Y-143734438D01*
X126852381Y-141734438D02*
X127519047Y-143734438D01*
X127519047Y-143734438D02*
X128185714Y-141734438D01*
X130376191Y-143734438D02*
X130376191Y-141734438D01*
X131328572Y-143734438D02*
X131328572Y-141734438D01*
X131328572Y-141734438D02*
X132471429Y-143734438D01*
X132471429Y-143734438D02*
X132471429Y-141734438D01*
X140416666Y-142686819D02*
X140702380Y-142782057D01*
X140702380Y-142782057D02*
X140797618Y-142877295D01*
X140797618Y-142877295D02*
X140892856Y-143067771D01*
X140892856Y-143067771D02*
X140892856Y-143353485D01*
X140892856Y-143353485D02*
X140797618Y-143543961D01*
X140797618Y-143543961D02*
X140702380Y-143639200D01*
X140702380Y-143639200D02*
X140511904Y-143734438D01*
X140511904Y-143734438D02*
X139749999Y-143734438D01*
X139749999Y-143734438D02*
X139749999Y-141734438D01*
X139749999Y-141734438D02*
X140416666Y-141734438D01*
X140416666Y-141734438D02*
X140607142Y-141829676D01*
X140607142Y-141829676D02*
X140702380Y-141924914D01*
X140702380Y-141924914D02*
X140797618Y-142115390D01*
X140797618Y-142115390D02*
X140797618Y-142305866D01*
X140797618Y-142305866D02*
X140702380Y-142496342D01*
X140702380Y-142496342D02*
X140607142Y-142591580D01*
X140607142Y-142591580D02*
X140416666Y-142686819D01*
X140416666Y-142686819D02*
X139749999Y-142686819D01*
X141654761Y-143163009D02*
X142607142Y-143163009D01*
X141464285Y-143734438D02*
X142130951Y-141734438D01*
X142130951Y-141734438D02*
X142797618Y-143734438D01*
X144416666Y-143734438D02*
X143464285Y-143734438D01*
X143464285Y-143734438D02*
X143464285Y-141734438D01*
X144988095Y-143163009D02*
X145940476Y-143163009D01*
X144797619Y-143734438D02*
X145464285Y-141734438D01*
X145464285Y-141734438D02*
X146130952Y-143734438D01*
X146797619Y-143734438D02*
X146797619Y-141734438D01*
X146797619Y-141734438D02*
X147940476Y-143734438D01*
X147940476Y-143734438D02*
X147940476Y-141734438D01*
X150035714Y-143543961D02*
X149940476Y-143639200D01*
X149940476Y-143639200D02*
X149654762Y-143734438D01*
X149654762Y-143734438D02*
X149464286Y-143734438D01*
X149464286Y-143734438D02*
X149178571Y-143639200D01*
X149178571Y-143639200D02*
X148988095Y-143448723D01*
X148988095Y-143448723D02*
X148892857Y-143258247D01*
X148892857Y-143258247D02*
X148797619Y-142877295D01*
X148797619Y-142877295D02*
X148797619Y-142591580D01*
X148797619Y-142591580D02*
X148892857Y-142210628D01*
X148892857Y-142210628D02*
X148988095Y-142020152D01*
X148988095Y-142020152D02*
X149178571Y-141829676D01*
X149178571Y-141829676D02*
X149464286Y-141734438D01*
X149464286Y-141734438D02*
X149654762Y-141734438D01*
X149654762Y-141734438D02*
X149940476Y-141829676D01*
X149940476Y-141829676D02*
X150035714Y-141924914D01*
X150892857Y-142686819D02*
X151559524Y-142686819D01*
X151845238Y-143734438D02*
X150892857Y-143734438D01*
X150892857Y-143734438D02*
X150892857Y-141734438D01*
X150892857Y-141734438D02*
X151845238Y-141734438D01*
D10*
X162654071Y-84749999D02*
X162725500Y-84821427D01*
X162725500Y-84821427D02*
X162796928Y-85035713D01*
X162796928Y-85035713D02*
X162796928Y-85178570D01*
X162796928Y-85178570D02*
X162725500Y-85392856D01*
X162725500Y-85392856D02*
X162582642Y-85535713D01*
X162582642Y-85535713D02*
X162439785Y-85607142D01*
X162439785Y-85607142D02*
X162154071Y-85678570D01*
X162154071Y-85678570D02*
X161939785Y-85678570D01*
X161939785Y-85678570D02*
X161654071Y-85607142D01*
X161654071Y-85607142D02*
X161511214Y-85535713D01*
X161511214Y-85535713D02*
X161368357Y-85392856D01*
X161368357Y-85392856D02*
X161296928Y-85178570D01*
X161296928Y-85178570D02*
X161296928Y-85035713D01*
X161296928Y-85035713D02*
X161368357Y-84821427D01*
X161368357Y-84821427D02*
X161439785Y-84749999D01*
X161439785Y-84178570D02*
X161368357Y-84107142D01*
X161368357Y-84107142D02*
X161296928Y-83964285D01*
X161296928Y-83964285D02*
X161296928Y-83607142D01*
X161296928Y-83607142D02*
X161368357Y-83464285D01*
X161368357Y-83464285D02*
X161439785Y-83392856D01*
X161439785Y-83392856D02*
X161582642Y-83321427D01*
X161582642Y-83321427D02*
X161725500Y-83321427D01*
X161725500Y-83321427D02*
X161939785Y-83392856D01*
X161939785Y-83392856D02*
X162796928Y-84249999D01*
X162796928Y-84249999D02*
X162796928Y-83321427D01*
X78703071Y-63964285D02*
X79417357Y-63464285D01*
X78703071Y-63107142D02*
X80203071Y-63107142D01*
X80203071Y-63107142D02*
X80203071Y-63678571D01*
X80203071Y-63678571D02*
X80131642Y-63821428D01*
X80131642Y-63821428D02*
X80060214Y-63892857D01*
X80060214Y-63892857D02*
X79917357Y-63964285D01*
X79917357Y-63964285D02*
X79703071Y-63964285D01*
X79703071Y-63964285D02*
X79560214Y-63892857D01*
X79560214Y-63892857D02*
X79488785Y-63821428D01*
X79488785Y-63821428D02*
X79417357Y-63678571D01*
X79417357Y-63678571D02*
X79417357Y-63107142D01*
X162368357Y-65071427D02*
X162368357Y-64357142D01*
X162796928Y-65214284D02*
X161296928Y-64714284D01*
X161296928Y-64714284D02*
X162796928Y-64214284D01*
X161439785Y-63785713D02*
X161368357Y-63714285D01*
X161368357Y-63714285D02*
X161296928Y-63571428D01*
X161296928Y-63571428D02*
X161296928Y-63214285D01*
X161296928Y-63214285D02*
X161368357Y-63071428D01*
X161368357Y-63071428D02*
X161439785Y-62999999D01*
X161439785Y-62999999D02*
X161582642Y-62928570D01*
X161582642Y-62928570D02*
X161725500Y-62928570D01*
X161725500Y-62928570D02*
X161939785Y-62999999D01*
X161939785Y-62999999D02*
X162796928Y-63857142D01*
X162796928Y-63857142D02*
X162796928Y-62928570D01*
D12*
X82857142Y-112837073D02*
X82761904Y-112932312D01*
X82761904Y-112932312D02*
X82476190Y-113027550D01*
X82476190Y-113027550D02*
X82285714Y-113027550D01*
X82285714Y-113027550D02*
X81999999Y-112932312D01*
X81999999Y-112932312D02*
X81809523Y-112741835D01*
X81809523Y-112741835D02*
X81714285Y-112551359D01*
X81714285Y-112551359D02*
X81619047Y-112170407D01*
X81619047Y-112170407D02*
X81619047Y-111884692D01*
X81619047Y-111884692D02*
X81714285Y-111503740D01*
X81714285Y-111503740D02*
X81809523Y-111313264D01*
X81809523Y-111313264D02*
X81999999Y-111122788D01*
X81999999Y-111122788D02*
X82285714Y-111027550D01*
X82285714Y-111027550D02*
X82476190Y-111027550D01*
X82476190Y-111027550D02*
X82761904Y-111122788D01*
X82761904Y-111122788D02*
X82857142Y-111218026D01*
X84857142Y-113027550D02*
X84190475Y-112075169D01*
X83714285Y-113027550D02*
X83714285Y-111027550D01*
X83714285Y-111027550D02*
X84476190Y-111027550D01*
X84476190Y-111027550D02*
X84666666Y-111122788D01*
X84666666Y-111122788D02*
X84761904Y-111218026D01*
X84761904Y-111218026D02*
X84857142Y-111408502D01*
X84857142Y-111408502D02*
X84857142Y-111694216D01*
X84857142Y-111694216D02*
X84761904Y-111884692D01*
X84761904Y-111884692D02*
X84666666Y-111979931D01*
X84666666Y-111979931D02*
X84476190Y-112075169D01*
X84476190Y-112075169D02*
X83714285Y-112075169D01*
X85714285Y-111979931D02*
X86380952Y-111979931D01*
X86666666Y-113027550D02*
X85714285Y-113027550D01*
X85714285Y-113027550D02*
X85714285Y-111027550D01*
X85714285Y-111027550D02*
X86666666Y-111027550D01*
X87428571Y-112456121D02*
X88380952Y-112456121D01*
X87238095Y-113027550D02*
X87904761Y-111027550D01*
X87904761Y-111027550D02*
X88571428Y-113027550D01*
X82285714Y-116247438D02*
X82285714Y-114247438D01*
X82285714Y-115009342D02*
X82476190Y-114914104D01*
X82476190Y-114914104D02*
X82857143Y-114914104D01*
X82857143Y-114914104D02*
X83047619Y-115009342D01*
X83047619Y-115009342D02*
X83142857Y-115104580D01*
X83142857Y-115104580D02*
X83238095Y-115295057D01*
X83238095Y-115295057D02*
X83238095Y-115866485D01*
X83238095Y-115866485D02*
X83142857Y-116056961D01*
X83142857Y-116056961D02*
X83047619Y-116152200D01*
X83047619Y-116152200D02*
X82857143Y-116247438D01*
X82857143Y-116247438D02*
X82476190Y-116247438D01*
X82476190Y-116247438D02*
X82285714Y-116152200D01*
X84380952Y-116247438D02*
X84190476Y-116152200D01*
X84190476Y-116152200D02*
X84095238Y-116056961D01*
X84095238Y-116056961D02*
X84000000Y-115866485D01*
X84000000Y-115866485D02*
X84000000Y-115295057D01*
X84000000Y-115295057D02*
X84095238Y-115104580D01*
X84095238Y-115104580D02*
X84190476Y-115009342D01*
X84190476Y-115009342D02*
X84380952Y-114914104D01*
X84380952Y-114914104D02*
X84666667Y-114914104D01*
X84666667Y-114914104D02*
X84857143Y-115009342D01*
X84857143Y-115009342D02*
X84952381Y-115104580D01*
X84952381Y-115104580D02*
X85047619Y-115295057D01*
X85047619Y-115295057D02*
X85047619Y-115866485D01*
X85047619Y-115866485D02*
X84952381Y-116056961D01*
X84952381Y-116056961D02*
X84857143Y-116152200D01*
X84857143Y-116152200D02*
X84666667Y-116247438D01*
X84666667Y-116247438D02*
X84380952Y-116247438D01*
X85619048Y-114914104D02*
X86380952Y-114914104D01*
X85904762Y-114247438D02*
X85904762Y-115961723D01*
X85904762Y-115961723D02*
X86000000Y-116152200D01*
X86000000Y-116152200D02*
X86190476Y-116247438D01*
X86190476Y-116247438D02*
X86380952Y-116247438D01*
X86952381Y-116152200D02*
X87142857Y-116247438D01*
X87142857Y-116247438D02*
X87523809Y-116247438D01*
X87523809Y-116247438D02*
X87714286Y-116152200D01*
X87714286Y-116152200D02*
X87809524Y-115961723D01*
X87809524Y-115961723D02*
X87809524Y-115866485D01*
X87809524Y-115866485D02*
X87714286Y-115676009D01*
X87714286Y-115676009D02*
X87523809Y-115580771D01*
X87523809Y-115580771D02*
X87238095Y-115580771D01*
X87238095Y-115580771D02*
X87047619Y-115485533D01*
X87047619Y-115485533D02*
X86952381Y-115295057D01*
X86952381Y-115295057D02*
X86952381Y-115199819D01*
X86952381Y-115199819D02*
X87047619Y-115009342D01*
X87047619Y-115009342D02*
X87238095Y-114914104D01*
X87238095Y-114914104D02*
X87523809Y-114914104D01*
X87523809Y-114914104D02*
X87714286Y-115009342D01*
D11*
X102892856Y-143734438D02*
X101749999Y-143734438D01*
X102321427Y-143734438D02*
X102321427Y-141734438D01*
X102321427Y-141734438D02*
X102130951Y-142020152D01*
X102130951Y-142020152D02*
X101940475Y-142210628D01*
X101940475Y-142210628D02*
X101749999Y-142305866D01*
X103654761Y-141924914D02*
X103749999Y-141829676D01*
X103749999Y-141829676D02*
X103940475Y-141734438D01*
X103940475Y-141734438D02*
X104416666Y-141734438D01*
X104416666Y-141734438D02*
X104607142Y-141829676D01*
X104607142Y-141829676D02*
X104702380Y-141924914D01*
X104702380Y-141924914D02*
X104797618Y-142115390D01*
X104797618Y-142115390D02*
X104797618Y-142305866D01*
X104797618Y-142305866D02*
X104702380Y-142591580D01*
X104702380Y-142591580D02*
X103559523Y-143734438D01*
X103559523Y-143734438D02*
X104797618Y-143734438D01*
X105369047Y-141734438D02*
X106035713Y-143734438D01*
X106035713Y-143734438D02*
X106702380Y-141734438D01*
X109273809Y-141734438D02*
X109654762Y-141734438D01*
X109654762Y-141734438D02*
X109845238Y-141829676D01*
X109845238Y-141829676D02*
X110035714Y-142020152D01*
X110035714Y-142020152D02*
X110130952Y-142401104D01*
X110130952Y-142401104D02*
X110130952Y-143067771D01*
X110130952Y-143067771D02*
X110035714Y-143448723D01*
X110035714Y-143448723D02*
X109845238Y-143639200D01*
X109845238Y-143639200D02*
X109654762Y-143734438D01*
X109654762Y-143734438D02*
X109273809Y-143734438D01*
X109273809Y-143734438D02*
X109083333Y-143639200D01*
X109083333Y-143639200D02*
X108892857Y-143448723D01*
X108892857Y-143448723D02*
X108797619Y-143067771D01*
X108797619Y-143067771D02*
X108797619Y-142401104D01*
X108797619Y-142401104D02*
X108892857Y-142020152D01*
X108892857Y-142020152D02*
X109083333Y-141829676D01*
X109083333Y-141829676D02*
X109273809Y-141734438D01*
X110988095Y-141734438D02*
X110988095Y-143353485D01*
X110988095Y-143353485D02*
X111083333Y-143543961D01*
X111083333Y-143543961D02*
X111178571Y-143639200D01*
X111178571Y-143639200D02*
X111369047Y-143734438D01*
X111369047Y-143734438D02*
X111750000Y-143734438D01*
X111750000Y-143734438D02*
X111940476Y-143639200D01*
X111940476Y-143639200D02*
X112035714Y-143543961D01*
X112035714Y-143543961D02*
X112130952Y-143353485D01*
X112130952Y-143353485D02*
X112130952Y-141734438D01*
X112797619Y-141734438D02*
X113940476Y-141734438D01*
X113369047Y-143734438D02*
X113369047Y-141734438D01*
X85138095Y-141734438D02*
X84757142Y-141734438D01*
X84757142Y-141734438D02*
X84566666Y-141829676D01*
X84566666Y-141829676D02*
X84471428Y-141924914D01*
X84471428Y-141924914D02*
X84280952Y-142210628D01*
X84280952Y-142210628D02*
X84185714Y-142591580D01*
X84185714Y-142591580D02*
X84185714Y-143353485D01*
X84185714Y-143353485D02*
X84280952Y-143543961D01*
X84280952Y-143543961D02*
X84376190Y-143639200D01*
X84376190Y-143639200D02*
X84566666Y-143734438D01*
X84566666Y-143734438D02*
X84947619Y-143734438D01*
X84947619Y-143734438D02*
X85138095Y-143639200D01*
X85138095Y-143639200D02*
X85233333Y-143543961D01*
X85233333Y-143543961D02*
X85328571Y-143353485D01*
X85328571Y-143353485D02*
X85328571Y-142877295D01*
X85328571Y-142877295D02*
X85233333Y-142686819D01*
X85233333Y-142686819D02*
X85138095Y-142591580D01*
X85138095Y-142591580D02*
X84947619Y-142496342D01*
X84947619Y-142496342D02*
X84566666Y-142496342D01*
X84566666Y-142496342D02*
X84376190Y-142591580D01*
X84376190Y-142591580D02*
X84280952Y-142686819D01*
X84280952Y-142686819D02*
X84185714Y-142877295D01*
X85900000Y-141734438D02*
X86566666Y-143734438D01*
X86566666Y-143734438D02*
X87233333Y-141734438D01*
X89423810Y-143734438D02*
X89423810Y-141734438D01*
X90376191Y-143734438D02*
X90376191Y-141734438D01*
X90376191Y-141734438D02*
X91519048Y-143734438D01*
X91519048Y-143734438D02*
X91519048Y-141734438D01*
D10*
X79131642Y-100928572D02*
X79131642Y-101642858D01*
X78703071Y-100785715D02*
X80203071Y-101285715D01*
X80203071Y-101285715D02*
X78703071Y-101785715D01*
X80203071Y-102142857D02*
X80203071Y-103071429D01*
X80203071Y-103071429D02*
X79631642Y-102571429D01*
X79631642Y-102571429D02*
X79631642Y-102785714D01*
X79631642Y-102785714D02*
X79560214Y-102928572D01*
X79560214Y-102928572D02*
X79488785Y-103000000D01*
X79488785Y-103000000D02*
X79345928Y-103071429D01*
X79345928Y-103071429D02*
X78988785Y-103071429D01*
X78988785Y-103071429D02*
X78845928Y-103000000D01*
X78845928Y-103000000D02*
X78774500Y-102928572D01*
X78774500Y-102928572D02*
X78703071Y-102785714D01*
X78703071Y-102785714D02*
X78703071Y-102357143D01*
X78703071Y-102357143D02*
X78774500Y-102214286D01*
X78774500Y-102214286D02*
X78845928Y-102142857D01*
D13*
G36*
X99751639Y-43014801D02*
G01*
X100926020Y-43014801D01*
X106317070Y-43014801D01*
X106285113Y-43237227D01*
X106185449Y-43461728D01*
X106005478Y-43695139D01*
X105649108Y-43987969D01*
X105141041Y-44247433D01*
X104559953Y-44411494D01*
X103858400Y-44470000D01*
X100926020Y-44470000D01*
X99751639Y-44470000D01*
X96886854Y-44470000D01*
X96401316Y-44440057D01*
X95978465Y-44354873D01*
X95609159Y-44219406D01*
X95267200Y-44027555D01*
X94989986Y-43803382D01*
X94769452Y-43546212D01*
X94603199Y-43253058D01*
X94504757Y-42944465D01*
X94471598Y-42614181D01*
X94471598Y-38089216D01*
X94504909Y-37754588D01*
X94603499Y-37444042D01*
X94769452Y-37151140D01*
X94990004Y-36894012D01*
X95267217Y-36670024D01*
X95609159Y-36478496D01*
X95978496Y-36342723D01*
X96401345Y-36257358D01*
X96886854Y-36227353D01*
X99751639Y-36227353D01*
X100926020Y-36227353D01*
X103858400Y-36227353D01*
X104559953Y-36285858D01*
X105141041Y-36449919D01*
X105649034Y-36709061D01*
X106005478Y-37002213D01*
X106185449Y-37235625D01*
X106285113Y-37460126D01*
X106317070Y-37682552D01*
X100926020Y-37682552D01*
X99751639Y-37682552D01*
X97002808Y-37682552D01*
X97002808Y-43014801D01*
X99751639Y-43014801D01*
G37*
G36*
X117825933Y-36257367D02*
G01*
X118248586Y-36342740D01*
X118617568Y-36478496D01*
X118959837Y-36670078D01*
X119237023Y-36894069D01*
X119457274Y-37151140D01*
X119623548Y-37444076D01*
X119722312Y-37754618D01*
X119755678Y-38089216D01*
X119755678Y-42614181D01*
X119722464Y-42944436D01*
X119623849Y-43253024D01*
X119457274Y-43546212D01*
X119237042Y-43803324D01*
X118959854Y-44027501D01*
X118617568Y-44219406D01*
X118248616Y-44354857D01*
X117825962Y-44440048D01*
X117340422Y-44470000D01*
X110374921Y-44470000D01*
X109889383Y-44440057D01*
X109466532Y-44354873D01*
X109097226Y-44219406D01*
X108755267Y-44027555D01*
X108478053Y-43803382D01*
X108257519Y-43546212D01*
X108091266Y-43253058D01*
X108015261Y-43014801D01*
X110490875Y-43014801D01*
X117224467Y-43014801D01*
X117224467Y-37682552D01*
X110490875Y-37682552D01*
X110490875Y-43014801D01*
X108015261Y-43014801D01*
X107992824Y-42944465D01*
X107959665Y-42614181D01*
X107959665Y-38089216D01*
X107992976Y-37754588D01*
X108091566Y-37444042D01*
X108257519Y-37151140D01*
X108478071Y-36894012D01*
X108755284Y-36670024D01*
X109097226Y-36478496D01*
X109466563Y-36342723D01*
X109889411Y-36257358D01*
X110374921Y-36227353D01*
X117340422Y-36227353D01*
X117825933Y-36257367D01*
G37*
G36*
X132151507Y-36257358D02*
G01*
X132574356Y-36342723D01*
X132943693Y-36478496D01*
X133285962Y-36670078D01*
X133563149Y-36894069D01*
X133783400Y-37151140D01*
X133949673Y-37444076D01*
X134048437Y-37754618D01*
X134081803Y-38089216D01*
X134081803Y-42614181D01*
X134048589Y-42944436D01*
X133949974Y-43253024D01*
X133783400Y-43546212D01*
X133563167Y-43803324D01*
X133285979Y-44027501D01*
X132943693Y-44219406D01*
X132574386Y-44354873D01*
X132151535Y-44440057D01*
X131665997Y-44470000D01*
X122285240Y-44470000D01*
X122285240Y-43014801D01*
X124816451Y-43014801D01*
X131550043Y-43014801D01*
X131550043Y-37682552D01*
X124816451Y-37682552D01*
X124816451Y-43014801D01*
X122285240Y-43014801D01*
X122285240Y-36227353D01*
X131665997Y-36227353D01*
X132151507Y-36257358D01*
G37*
G36*
X146849965Y-36227353D02*
G01*
X148605765Y-36227353D01*
X143344958Y-40882011D01*
X143344958Y-44470000D01*
X140813747Y-44470000D01*
X140813747Y-41084794D01*
X135560633Y-36227353D01*
X138489166Y-36227353D01*
X142540971Y-39934593D01*
X146849965Y-36227353D01*
G37*
D10*
X78845928Y-83750000D02*
X78774500Y-83678572D01*
X78774500Y-83678572D02*
X78703071Y-83464286D01*
X78703071Y-83464286D02*
X78703071Y-83321429D01*
X78703071Y-83321429D02*
X78774500Y-83107143D01*
X78774500Y-83107143D02*
X78917357Y-82964286D01*
X78917357Y-82964286D02*
X79060214Y-82892857D01*
X79060214Y-82892857D02*
X79345928Y-82821429D01*
X79345928Y-82821429D02*
X79560214Y-82821429D01*
X79560214Y-82821429D02*
X79845928Y-82892857D01*
X79845928Y-82892857D02*
X79988785Y-82964286D01*
X79988785Y-82964286D02*
X80131642Y-83107143D01*
X80131642Y-83107143D02*
X80203071Y-83321429D01*
X80203071Y-83321429D02*
X80203071Y-83464286D01*
X80203071Y-83464286D02*
X80131642Y-83678572D01*
X80131642Y-83678572D02*
X80060214Y-83750000D01*
X78703071Y-85178572D02*
X78703071Y-84321429D01*
X78703071Y-84750000D02*
X80203071Y-84750000D01*
X80203071Y-84750000D02*
X79988785Y-84607143D01*
X79988785Y-84607143D02*
X79845928Y-84464286D01*
X79845928Y-84464286D02*
X79774500Y-84321429D01*
X78703071Y-43964285D02*
X78703071Y-43249999D01*
X78703071Y-43249999D02*
X80203071Y-43249999D01*
X162368357Y-45071427D02*
X162368357Y-44357142D01*
X162796928Y-45214284D02*
X161296928Y-44714284D01*
X161296928Y-44714284D02*
X162796928Y-44214284D01*
X162796928Y-42928570D02*
X162796928Y-43785713D01*
X162796928Y-43357142D02*
X161296928Y-43357142D01*
X161296928Y-43357142D02*
X161511214Y-43499999D01*
X161511214Y-43499999D02*
X161654071Y-43642856D01*
X161654071Y-43642856D02*
X161725500Y-43785713D01*
D12*
X92259048Y-87533866D02*
X93020953Y-87533866D01*
X92640000Y-87914819D02*
X92640000Y-87152914D01*
%TO.C,U2*%
D14*
X113000000Y-78590000D02*
X131000000Y-78590000D01*
X131000000Y-99590000D01*
X113000000Y-99590000D01*
X113000000Y-78590000D01*
D15*
%TO.C,R4*%
X155130000Y-121730000D02*
X155130000Y-128270000D01*
X155130000Y-128270000D02*
X155460000Y-128270000D01*
X155460000Y-121730000D02*
X155130000Y-121730000D01*
X157540000Y-121730000D02*
X157870000Y-121730000D01*
X157870000Y-121730000D02*
X157870000Y-128270000D01*
X157870000Y-128270000D02*
X157540000Y-128270000D01*
%TO.C,BZ1*%
X102550000Y-90000000D02*
G75*
G02*
X90350000Y-90000000I-6100000J0D01*
G01*
X90350000Y-90000000D02*
G75*
G02*
X102550000Y-90000000I6100000J0D01*
G01*
%TO.C,U3*%
D14*
X132500000Y-78590000D02*
X150500000Y-78590000D01*
X150500000Y-99590000D01*
X132500000Y-99590000D01*
X132500000Y-78590000D01*
D15*
%TO.C,J15*%
X81990000Y-74440000D02*
X81990000Y-94560000D01*
X81990000Y-94560000D02*
X87960000Y-94560000D01*
X82750000Y-75200000D02*
X82750000Y-84500000D01*
X82750000Y-93800000D02*
X82750000Y-84500000D01*
X85700000Y-74450000D02*
X85700000Y-75200000D01*
X85700000Y-75200000D02*
X82750000Y-75200000D01*
X85700000Y-93800000D02*
X82750000Y-93800000D01*
X85700000Y-94550000D02*
X85700000Y-93800000D01*
X87200000Y-74450000D02*
X87200000Y-76250000D01*
X87200000Y-76250000D02*
X87950000Y-76250000D01*
X87200000Y-77750000D02*
X87200000Y-91250000D01*
X87200000Y-91250000D02*
X87950000Y-91250000D01*
X87200000Y-92750000D02*
X87200000Y-94550000D01*
X87200000Y-94550000D02*
X87950000Y-94550000D01*
X87950000Y-74450000D02*
X87200000Y-74450000D01*
X87950000Y-76250000D02*
X87950000Y-74450000D01*
X87950000Y-77750000D02*
X87200000Y-77750000D01*
X87950000Y-91250000D02*
X87950000Y-77750000D01*
X87950000Y-92750000D02*
X87200000Y-92750000D01*
X87950000Y-94550000D02*
X87950000Y-92750000D01*
X87960000Y-74440000D02*
X81990000Y-74440000D01*
X87960000Y-94560000D02*
X87960000Y-74440000D01*
X88250000Y-74150000D02*
X87000000Y-74150000D01*
X88250000Y-75400000D02*
X88250000Y-74150000D01*
D16*
%TO.C,U1*%
X96250000Y-101250000D02*
X144582000Y-101250000D01*
X96250000Y-129150000D02*
X96250000Y-101250000D01*
X144582000Y-101250000D02*
X144582000Y-129170000D01*
X144582000Y-129170000D02*
X96250000Y-129150000D01*
D15*
%TO.C,J5*%
X152750000Y-52100000D02*
X152750000Y-53350000D01*
X152750000Y-53350000D02*
X154000000Y-53350000D01*
X153040000Y-35440000D02*
X153040000Y-53060000D01*
X153040000Y-53060000D02*
X159010000Y-53060000D01*
X153050000Y-35450000D02*
X153050000Y-37250000D01*
X153050000Y-37250000D02*
X153800000Y-37250000D01*
X153050000Y-38750000D02*
X153050000Y-49750000D01*
X153050000Y-49750000D02*
X153800000Y-49750000D01*
X153050000Y-51250000D02*
X153050000Y-53050000D01*
X153050000Y-53050000D02*
X153800000Y-53050000D01*
X153800000Y-35450000D02*
X153050000Y-35450000D01*
X153800000Y-37250000D02*
X153800000Y-35450000D01*
X153800000Y-38750000D02*
X153050000Y-38750000D01*
X153800000Y-49750000D02*
X153800000Y-38750000D01*
X153800000Y-51250000D02*
X153050000Y-51250000D01*
X153800000Y-53050000D02*
X153800000Y-51250000D01*
X155300000Y-35450000D02*
X155300000Y-36200000D01*
X155300000Y-36200000D02*
X158250000Y-36200000D01*
X155300000Y-52300000D02*
X158250000Y-52300000D01*
X155300000Y-53050000D02*
X155300000Y-52300000D01*
X158250000Y-36200000D02*
X158250000Y-44250000D01*
X158250000Y-52300000D02*
X158250000Y-44250000D01*
X159010000Y-35440000D02*
X153040000Y-35440000D01*
X159010000Y-53060000D02*
X159010000Y-35440000D01*
%TO.C,J16*%
X152775000Y-93850000D02*
X152775000Y-95100000D01*
X152775000Y-95100000D02*
X154025000Y-95100000D01*
X153065000Y-74690000D02*
X153065000Y-94810000D01*
X153065000Y-94810000D02*
X159035000Y-94810000D01*
X153075000Y-74700000D02*
X153075000Y-76500000D01*
X153075000Y-76500000D02*
X153825000Y-76500000D01*
X153075000Y-78000000D02*
X153075000Y-91500000D01*
X153075000Y-91500000D02*
X153825000Y-91500000D01*
X153075000Y-93000000D02*
X153075000Y-94800000D01*
X153075000Y-94800000D02*
X153825000Y-94800000D01*
X153825000Y-74700000D02*
X153075000Y-74700000D01*
X153825000Y-76500000D02*
X153825000Y-74700000D01*
X153825000Y-78000000D02*
X153075000Y-78000000D01*
X153825000Y-91500000D02*
X153825000Y-78000000D01*
X153825000Y-93000000D02*
X153075000Y-93000000D01*
X153825000Y-94800000D02*
X153825000Y-93000000D01*
X155325000Y-74700000D02*
X155325000Y-75450000D01*
X155325000Y-75450000D02*
X158275000Y-75450000D01*
X155325000Y-94050000D02*
X158275000Y-94050000D01*
X155325000Y-94800000D02*
X155325000Y-94050000D01*
X158275000Y-75450000D02*
X158275000Y-84750000D01*
X158275000Y-94050000D02*
X158275000Y-84750000D01*
X159035000Y-74690000D02*
X153065000Y-74690000D01*
X159035000Y-94810000D02*
X159035000Y-74690000D01*
%TO.C,U4*%
D12*
X135226000Y-47788000D02*
X150736000Y-47788000D01*
X150736000Y-74204000D01*
X135226000Y-74204000D01*
X135226000Y-47788000D01*
D15*
%TO.C,J8*%
X81990000Y-96940000D02*
X81990000Y-107060000D01*
X81990000Y-107060000D02*
X87960000Y-107060000D01*
X82750000Y-97700000D02*
X82750000Y-102000000D01*
X82750000Y-106300000D02*
X82750000Y-102000000D01*
X85700000Y-96950000D02*
X85700000Y-97700000D01*
X85700000Y-97700000D02*
X82750000Y-97700000D01*
X85700000Y-106300000D02*
X82750000Y-106300000D01*
X85700000Y-107050000D02*
X85700000Y-106300000D01*
X87200000Y-96950000D02*
X87200000Y-98750000D01*
X87200000Y-98750000D02*
X87950000Y-98750000D01*
X87200000Y-100250000D02*
X87200000Y-103750000D01*
X87200000Y-103750000D02*
X87950000Y-103750000D01*
X87200000Y-105250000D02*
X87200000Y-107050000D01*
X87200000Y-107050000D02*
X87950000Y-107050000D01*
X87950000Y-96950000D02*
X87200000Y-96950000D01*
X87950000Y-98750000D02*
X87950000Y-96950000D01*
X87950000Y-100250000D02*
X87200000Y-100250000D01*
X87950000Y-103750000D02*
X87950000Y-100250000D01*
X87950000Y-105250000D02*
X87200000Y-105250000D01*
X87950000Y-107050000D02*
X87950000Y-105250000D01*
X87960000Y-96940000D02*
X81990000Y-96940000D01*
X87960000Y-107060000D02*
X87960000Y-96940000D01*
X88250000Y-96650000D02*
X87000000Y-96650000D01*
X88250000Y-97900000D02*
X88250000Y-96650000D01*
%TO.C,R3*%
X159130000Y-121740000D02*
X159460000Y-121740000D01*
X159130000Y-128280000D02*
X159130000Y-121740000D01*
X159460000Y-128280000D02*
X159130000Y-128280000D01*
X161540000Y-128280000D02*
X161870000Y-128280000D01*
X161870000Y-121740000D02*
X161540000Y-121740000D01*
X161870000Y-128280000D02*
X161870000Y-121740000D01*
%TO.C,J13*%
X119533333Y-134400000D02*
X119533333Y-137550000D01*
X119533333Y-137550000D02*
X122383333Y-140150000D01*
X122383333Y-131850000D02*
X119533333Y-134400000D01*
X122383333Y-140150000D02*
X135233333Y-140150000D01*
X135233333Y-131850000D02*
X122383333Y-131850000D01*
X135233333Y-140150000D02*
X135233333Y-131850000D01*
%TO.C,R2*%
X159130000Y-132360000D02*
X159130000Y-138900000D01*
X159130000Y-138900000D02*
X159460000Y-138900000D01*
X159460000Y-132360000D02*
X159130000Y-132360000D01*
X161540000Y-132360000D02*
X161870000Y-132360000D01*
X161870000Y-132360000D02*
X161870000Y-138900000D01*
X161870000Y-138900000D02*
X161540000Y-138900000D01*
%TO.C,J1*%
X81990000Y-34940000D02*
X81990000Y-52560000D01*
X81990000Y-52560000D02*
X87960000Y-52560000D01*
X82750000Y-35700000D02*
X82750000Y-43750000D01*
X82750000Y-51800000D02*
X82750000Y-43750000D01*
X85700000Y-34950000D02*
X85700000Y-35700000D01*
X85700000Y-35700000D02*
X82750000Y-35700000D01*
X85700000Y-51800000D02*
X82750000Y-51800000D01*
X85700000Y-52550000D02*
X85700000Y-51800000D01*
X87200000Y-34950000D02*
X87200000Y-36750000D01*
X87200000Y-36750000D02*
X87950000Y-36750000D01*
X87200000Y-38250000D02*
X87200000Y-49250000D01*
X87200000Y-49250000D02*
X87950000Y-49250000D01*
X87200000Y-50750000D02*
X87200000Y-52550000D01*
X87200000Y-52550000D02*
X87950000Y-52550000D01*
X87950000Y-34950000D02*
X87200000Y-34950000D01*
X87950000Y-36750000D02*
X87950000Y-34950000D01*
X87950000Y-38250000D02*
X87200000Y-38250000D01*
X87950000Y-49250000D02*
X87950000Y-38250000D01*
X87950000Y-50750000D02*
X87200000Y-50750000D01*
X87950000Y-52550000D02*
X87950000Y-50750000D01*
X87960000Y-34940000D02*
X81990000Y-34940000D01*
X87960000Y-52560000D02*
X87960000Y-34940000D01*
X88250000Y-34650000D02*
X87000000Y-34650000D01*
X88250000Y-35900000D02*
X88250000Y-34650000D01*
%TO.C,J2*%
X81990000Y-54440000D02*
X81990000Y-72060000D01*
X81990000Y-72060000D02*
X87960000Y-72060000D01*
X82750000Y-55200000D02*
X82750000Y-63250000D01*
X82750000Y-71300000D02*
X82750000Y-63250000D01*
X85700000Y-54450000D02*
X85700000Y-55200000D01*
X85700000Y-55200000D02*
X82750000Y-55200000D01*
X85700000Y-71300000D02*
X82750000Y-71300000D01*
X85700000Y-72050000D02*
X85700000Y-71300000D01*
X87200000Y-54450000D02*
X87200000Y-56250000D01*
X87200000Y-56250000D02*
X87950000Y-56250000D01*
X87200000Y-57750000D02*
X87200000Y-68750000D01*
X87200000Y-68750000D02*
X87950000Y-68750000D01*
X87200000Y-70250000D02*
X87200000Y-72050000D01*
X87200000Y-72050000D02*
X87950000Y-72050000D01*
X87950000Y-54450000D02*
X87200000Y-54450000D01*
X87950000Y-56250000D02*
X87950000Y-54450000D01*
X87950000Y-57750000D02*
X87200000Y-57750000D01*
X87950000Y-68750000D02*
X87950000Y-57750000D01*
X87950000Y-70250000D02*
X87200000Y-70250000D01*
X87950000Y-72050000D02*
X87950000Y-70250000D01*
X87960000Y-54440000D02*
X81990000Y-54440000D01*
X87960000Y-72060000D02*
X87960000Y-54440000D01*
X88250000Y-54150000D02*
X87000000Y-54150000D01*
X88250000Y-55400000D02*
X88250000Y-54150000D01*
%TO.C,J9*%
X152775000Y-106350000D02*
X152775000Y-107600000D01*
X152775000Y-107600000D02*
X154025000Y-107600000D01*
X153065000Y-97190000D02*
X153065000Y-107310000D01*
X153065000Y-107310000D02*
X159035000Y-107310000D01*
X153075000Y-97200000D02*
X153075000Y-99000000D01*
X153075000Y-99000000D02*
X153825000Y-99000000D01*
X153075000Y-100500000D02*
X153075000Y-104000000D01*
X153075000Y-104000000D02*
X153825000Y-104000000D01*
X153075000Y-105500000D02*
X153075000Y-107300000D01*
X153075000Y-107300000D02*
X153825000Y-107300000D01*
X153825000Y-97200000D02*
X153075000Y-97200000D01*
X153825000Y-99000000D02*
X153825000Y-97200000D01*
X153825000Y-100500000D02*
X153075000Y-100500000D01*
X153825000Y-104000000D02*
X153825000Y-100500000D01*
X153825000Y-105500000D02*
X153075000Y-105500000D01*
X153825000Y-107300000D02*
X153825000Y-105500000D01*
X155325000Y-97200000D02*
X155325000Y-97950000D01*
X155325000Y-97950000D02*
X158275000Y-97950000D01*
X155325000Y-106550000D02*
X158275000Y-106550000D01*
X155325000Y-107300000D02*
X155325000Y-106550000D01*
X158275000Y-97950000D02*
X158275000Y-102250000D01*
X158275000Y-106550000D02*
X158275000Y-102250000D01*
X159035000Y-97190000D02*
X153065000Y-97190000D01*
X159035000Y-107310000D02*
X159035000Y-97190000D01*
%TO.C,J14*%
X79700000Y-134400000D02*
X79700000Y-137550000D01*
X79700000Y-137550000D02*
X82550000Y-140150000D01*
X82550000Y-131850000D02*
X79700000Y-134400000D01*
X82550000Y-140150000D02*
X95400000Y-140150000D01*
X95400000Y-131850000D02*
X82550000Y-131850000D01*
X95400000Y-140150000D02*
X95400000Y-131850000D01*
%TO.C,R6*%
X155130000Y-111110000D02*
X155130000Y-117650000D01*
X155130000Y-117650000D02*
X155460000Y-117650000D01*
X155460000Y-111110000D02*
X155130000Y-111110000D01*
X157540000Y-111110000D02*
X157870000Y-111110000D01*
X157870000Y-111110000D02*
X157870000Y-117650000D01*
X157870000Y-117650000D02*
X157540000Y-117650000D01*
%TO.C,U5*%
D14*
X114486000Y-48034000D02*
X132486000Y-48034000D01*
X132486000Y-76034000D01*
X114486000Y-76034000D01*
X114486000Y-48034000D01*
D15*
%TO.C,J12*%
X99616667Y-134400000D02*
X99616667Y-137550000D01*
X99616667Y-137550000D02*
X102466667Y-140150000D01*
X102466667Y-131850000D02*
X99616667Y-134400000D01*
X102466667Y-140150000D02*
X115316667Y-140150000D01*
X115316667Y-131850000D02*
X102466667Y-131850000D01*
X115316667Y-140150000D02*
X115316667Y-131850000D01*
%TO.C,R5*%
X159130000Y-111120000D02*
X159460000Y-111120000D01*
X159130000Y-117660000D02*
X159130000Y-111120000D01*
X159460000Y-117660000D02*
X159130000Y-117660000D01*
X161540000Y-117660000D02*
X161870000Y-117660000D01*
X161870000Y-111120000D02*
X161540000Y-111120000D01*
X161870000Y-117660000D02*
X161870000Y-111120000D01*
%TO.C,D1*%
X104801000Y-90301188D02*
X104801000Y-91547000D01*
X104976000Y-88202000D02*
G75*
G02*
X110337835Y-89743784I2385000J-1800000D01*
G01*
X105608401Y-88224001D02*
G75*
G02*
X109841090Y-89715579I1752599J-1777999D01*
G01*
X109320086Y-91555056D02*
G75*
G02*
X105106316Y-91082000I-1959086J1553056D01*
G01*
X109752334Y-91796887D02*
G75*
G02*
X104801000Y-91546830I-2391334J1794887D01*
G01*
%TO.C,J6*%
X152750000Y-71600000D02*
X152750000Y-72850000D01*
X152750000Y-72850000D02*
X154000000Y-72850000D01*
X153040000Y-54940000D02*
X153040000Y-72560000D01*
X153040000Y-72560000D02*
X159010000Y-72560000D01*
X153050000Y-54950000D02*
X153050000Y-56750000D01*
X153050000Y-56750000D02*
X153800000Y-56750000D01*
X153050000Y-58250000D02*
X153050000Y-69250000D01*
X153050000Y-69250000D02*
X153800000Y-69250000D01*
X153050000Y-70750000D02*
X153050000Y-72550000D01*
X153050000Y-72550000D02*
X153800000Y-72550000D01*
X153800000Y-54950000D02*
X153050000Y-54950000D01*
X153800000Y-56750000D02*
X153800000Y-54950000D01*
X153800000Y-58250000D02*
X153050000Y-58250000D01*
X153800000Y-69250000D02*
X153800000Y-58250000D01*
X153800000Y-70750000D02*
X153050000Y-70750000D01*
X153800000Y-72550000D02*
X153800000Y-70750000D01*
X155300000Y-54950000D02*
X155300000Y-55700000D01*
X155300000Y-55700000D02*
X158250000Y-55700000D01*
X155300000Y-71800000D02*
X158250000Y-71800000D01*
X155300000Y-72550000D02*
X155300000Y-71800000D01*
X158250000Y-55700000D02*
X158250000Y-63750000D01*
X158250000Y-71800000D02*
X158250000Y-63750000D01*
X159010000Y-54940000D02*
X153040000Y-54940000D01*
X159010000Y-72560000D02*
X159010000Y-54940000D01*
%TO.C,R1*%
X155130000Y-132350000D02*
X155460000Y-132350000D01*
X155130000Y-138890000D02*
X155130000Y-132350000D01*
X155460000Y-138890000D02*
X155130000Y-138890000D01*
X157540000Y-138890000D02*
X157870000Y-138890000D01*
X157870000Y-132350000D02*
X157540000Y-132350000D01*
X157870000Y-138890000D02*
X157870000Y-132350000D01*
%TO.C,J7*%
X139150000Y-131725000D02*
X139150000Y-132975000D01*
X139440000Y-132015000D02*
X139440000Y-137985000D01*
X139440000Y-137985000D02*
X152060000Y-137985000D01*
X139450000Y-132025000D02*
X139450000Y-132775000D01*
X139450000Y-132775000D02*
X141250000Y-132775000D01*
X139450000Y-134275000D02*
X140200000Y-134275000D01*
X140200000Y-134275000D02*
X140200000Y-137225000D01*
X140200000Y-137225000D02*
X145750000Y-137225000D01*
X140400000Y-131725000D02*
X139150000Y-131725000D01*
X141250000Y-132025000D02*
X139450000Y-132025000D01*
X141250000Y-132775000D02*
X141250000Y-132025000D01*
X142750000Y-132025000D02*
X142750000Y-132775000D01*
X142750000Y-132775000D02*
X148750000Y-132775000D01*
X148750000Y-132025000D02*
X142750000Y-132025000D01*
X148750000Y-132775000D02*
X148750000Y-132025000D01*
X150250000Y-132025000D02*
X150250000Y-132775000D01*
X150250000Y-132775000D02*
X152050000Y-132775000D01*
X151300000Y-134275000D02*
X151300000Y-137225000D01*
X151300000Y-137225000D02*
X145750000Y-137225000D01*
X152050000Y-132025000D02*
X150250000Y-132025000D01*
X152050000Y-132775000D02*
X152050000Y-132025000D01*
X152050000Y-134275000D02*
X151300000Y-134275000D01*
X152060000Y-132015000D02*
X139440000Y-132015000D01*
X152060000Y-137985000D02*
X152060000Y-132015000D01*
%TO.C,U6*%
D14*
X90500000Y-48034000D02*
X111500000Y-48034000D01*
X111500000Y-80034000D01*
X90500000Y-80034000D01*
X90500000Y-48034000D01*
%TD*%
M02*
