%TF.GenerationSoftware,KiCad,Pcbnew,9.0.2*%
%TF.CreationDate,2026-03-11T19:14:36+01:00*%
%TF.ProjectId,Cody,436f6479-2e6b-4696-9361-645f70636258,rev?*%
%TF.SameCoordinates,Original*%
%TF.FileFunction,Soldermask,Top*%
%TF.FilePolarity,Negative*%
%FSLAX46Y46*%
G04 Gerber Fmt 4.6, Leading zero omitted, Abs format (unit mm)*
G04 Created by KiCad (PCBNEW 9.0.2) date 2026-03-11 19:14:36*
%MOMM*%
%LPD*%
G01*
G04 APERTURE LIST*
G04 Aperture macros list*
%AMRoundRect*
0 Rectangle with rounded corners*
0 $1 Rounding radius*
0 $2 $3 $4 $5 $6 $7 $8 $9 X,Y pos of 4 corners*
0 Add a 4 corners polygon primitive as box body*
4,1,4,$2,$3,$4,$5,$6,$7,$8,$9,$2,$3,0*
0 Add four circle primitives for the rounded corners*
1,1,$1+$1,$2,$3*
1,1,$1+$1,$4,$5*
1,1,$1+$1,$6,$7*
1,1,$1+$1,$8,$9*
0 Add four rect primitives between the rounded corners*
20,1,$1+$1,$2,$3,$4,$5,0*
20,1,$1+$1,$4,$5,$6,$7,0*
20,1,$1+$1,$6,$7,$8,$9,0*
20,1,$1+$1,$8,$9,$2,$3,0*%
G04 Aperture macros list end*
%ADD10C,1.600000*%
%ADD11C,5.300000*%
%ADD12RoundRect,0.225000X-0.525000X-0.525000X0.525000X-0.525000X0.525000X0.525000X-0.525000X0.525000X0*%
%ADD13C,1.500000*%
%ADD14RoundRect,0.250000X0.725000X-0.600000X0.725000X0.600000X-0.725000X0.600000X-0.725000X-0.600000X0*%
%ADD15O,1.950000X1.700000*%
%ADD16RoundRect,0.450000X-0.450000X0.450000X-0.450000X-0.450000X0.450000X-0.450000X0.450000X0.450000X0*%
%ADD17C,1.800000*%
%ADD18RoundRect,0.250000X-0.725000X0.600000X-0.725000X-0.600000X0.725000X-0.600000X0.725000X0.600000X0*%
%ADD19R,2.000000X2.000000*%
%ADD20C,2.000000*%
%ADD21RoundRect,0.250000X-0.750000X0.600000X-0.750000X-0.600000X0.750000X-0.600000X0.750000X0.600000X0*%
%ADD22O,2.000000X1.700000*%
%ADD23RoundRect,0.250000X0.600000X0.725000X-0.600000X0.725000X-0.600000X-0.725000X0.600000X-0.725000X0*%
%ADD24O,1.700000X1.950000*%
%ADD25RoundRect,1.500000X-1.500000X-1.500000X1.500000X-1.500000X1.500000X1.500000X-1.500000X1.500000X0*%
%ADD26C,6.000000*%
%ADD27RoundRect,0.102000X-0.780000X-0.780000X0.780000X-0.780000X0.780000X0.780000X-0.780000X0.780000X0*%
%ADD28C,1.764000*%
G04 APERTURE END LIST*
D10*
%TO.C,R4*%
X116440000Y-38500000D03*
X108820000Y-38500000D03*
%TD*%
D11*
%TO.C,REF\u002A\u002A*%
X148500000Y-35000000D03*
%TD*%
D12*
%TO.C,U2*%
X81892660Y-103430000D03*
D13*
X81892660Y-105970000D03*
X81892660Y-108510000D03*
X81892660Y-111050000D03*
X81892660Y-113590000D03*
X81892660Y-116130000D03*
X81860000Y-118685579D03*
X81892660Y-121210000D03*
D12*
X94860000Y-103405579D03*
D13*
X94860000Y-105945579D03*
X94860000Y-108485579D03*
X94860000Y-111025579D03*
X94860000Y-113565579D03*
X94860000Y-116105579D03*
X94827340Y-118661158D03*
X94860000Y-121185579D03*
%TD*%
D14*
%TO.C,J3*%
X146600000Y-75750000D03*
D15*
X146600000Y-73250000D03*
X146600000Y-70750000D03*
X146600000Y-68250000D03*
X146600000Y-65750000D03*
X146600000Y-63250000D03*
%TD*%
D16*
%TO.C,D1*%
X39000000Y-111698000D03*
D17*
X37476000Y-113476000D03*
X39000000Y-115000000D03*
X37476000Y-116524000D03*
%TD*%
D14*
%TO.C,J15*%
X147000000Y-117150000D03*
D15*
X147000000Y-114650000D03*
X147000000Y-112150000D03*
X147000000Y-109650000D03*
X147000000Y-107150000D03*
X147000000Y-104650000D03*
X147000000Y-102150000D03*
%TD*%
D14*
%TO.C,J2*%
X146600000Y-56250000D03*
D15*
X146600000Y-53750000D03*
X146600000Y-51250000D03*
X146600000Y-48750000D03*
X146600000Y-46250000D03*
X146600000Y-43750000D03*
%TD*%
D18*
%TO.C,J5*%
X39000000Y-63250000D03*
D15*
X39000000Y-65750000D03*
X39000000Y-68250000D03*
X39000000Y-70750000D03*
X39000000Y-73250000D03*
X39000000Y-75750000D03*
%TD*%
D10*
%TO.C,R6*%
X127120000Y-35000000D03*
X119500000Y-35000000D03*
%TD*%
D19*
%TO.C,U4*%
X103602000Y-69566000D03*
D20*
X103602000Y-72106000D03*
X103602000Y-74646000D03*
X103602000Y-77186000D03*
X103602000Y-79726000D03*
X103602000Y-82266000D03*
X103602000Y-84806000D03*
X103602000Y-87346000D03*
X103602000Y-89886000D03*
X103602000Y-92426000D03*
%TD*%
D12*
%TO.C,U7*%
X121992660Y-103430000D03*
D13*
X121992660Y-105970000D03*
X121992660Y-108510000D03*
X121992660Y-111050000D03*
X121992660Y-113590000D03*
X121992660Y-116130000D03*
X121960000Y-118685579D03*
X121992660Y-121210000D03*
D12*
X134960000Y-103405579D03*
D13*
X134960000Y-105945579D03*
X134960000Y-108485579D03*
X134960000Y-111025579D03*
X134960000Y-113565579D03*
X134960000Y-116105579D03*
X134927340Y-118661158D03*
X134960000Y-121185579D03*
%TD*%
D10*
%TO.C,R2*%
X105880000Y-35000000D03*
X98260000Y-35000000D03*
%TD*%
D12*
%TO.C,U3*%
X101942660Y-103430000D03*
D13*
X101942660Y-105970000D03*
X101942660Y-108510000D03*
X101942660Y-111050000D03*
X101942660Y-113590000D03*
X101942660Y-116130000D03*
X101910000Y-118685579D03*
X101942660Y-121210000D03*
D12*
X114910000Y-103405579D03*
D13*
X114910000Y-105945579D03*
X114910000Y-108485579D03*
X114910000Y-111025579D03*
X114910000Y-113565579D03*
X114910000Y-116105579D03*
X114877340Y-118661158D03*
X114910000Y-121185579D03*
%TD*%
D19*
%TO.C,BZ1*%
X132400000Y-39000000D03*
D20*
X140000000Y-39000000D03*
%TD*%
D12*
%TO.C,U6*%
X81000000Y-69494421D03*
D13*
X81000000Y-72034421D03*
X81000000Y-74574421D03*
X81000000Y-77114421D03*
X81000000Y-79654421D03*
X81000000Y-82194421D03*
X81000000Y-84734421D03*
X81000000Y-87274421D03*
X81000000Y-89814421D03*
X80971193Y-92349227D03*
D12*
X99000000Y-69494421D03*
D13*
X99000000Y-72034421D03*
X99000000Y-74574421D03*
X99000000Y-77114421D03*
X99000000Y-79654421D03*
X99000000Y-82194421D03*
X99000000Y-84734421D03*
X99000000Y-87274421D03*
X99000000Y-89814421D03*
X98971193Y-92349227D03*
X84920000Y-98494421D03*
X87460000Y-98494421D03*
X90000000Y-98494421D03*
X92540000Y-98494421D03*
X95080000Y-98494421D03*
%TD*%
D12*
%TO.C,U5*%
X120960000Y-70610000D03*
D13*
X120960000Y-73150000D03*
X120960000Y-75690000D03*
X120960000Y-78230000D03*
X120960000Y-80770000D03*
X120954385Y-83310000D03*
X120960000Y-85850000D03*
X120960000Y-88390000D03*
X120960000Y-90930000D03*
X120960000Y-93470000D03*
%TD*%
D18*
%TO.C,J6*%
X39000000Y-82750000D03*
D15*
X39000000Y-85250000D03*
X39000000Y-87750000D03*
X39000000Y-90250000D03*
X39000000Y-92750000D03*
X39000000Y-95250000D03*
%TD*%
D21*
%TO.C,J8*%
X39000000Y-104024000D03*
D22*
X39000000Y-106524000D03*
%TD*%
D23*
%TO.C,J7*%
X91500000Y-37000000D03*
D24*
X89000000Y-37000000D03*
X86500000Y-37000000D03*
X84000000Y-37000000D03*
%TD*%
D18*
%TO.C,J1*%
X39000000Y-44000000D03*
D15*
X39000000Y-46500000D03*
X39000000Y-49000000D03*
X39000000Y-51500000D03*
X39000000Y-54000000D03*
X39000000Y-56500000D03*
%TD*%
D10*
%TO.C,R3*%
X108820000Y-35000000D03*
X116440000Y-35000000D03*
%TD*%
D25*
%TO.C,J14*%
X49200000Y-37500000D03*
D26*
X56400000Y-37500000D03*
%TD*%
D11*
%TO.C,REF\u002A\u002A*%
X36830000Y-35000000D03*
%TD*%
D10*
%TO.C,R1*%
X98250000Y-38500000D03*
X105870000Y-38500000D03*
%TD*%
D11*
%TO.C,REF\u002A\u002A*%
X37000000Y-126000000D03*
%TD*%
%TO.C,REF\u002A\u002A*%
X148500000Y-126000000D03*
%TD*%
D14*
%TO.C,J4*%
X146850000Y-95250000D03*
D15*
X146850000Y-92750000D03*
X146850000Y-90250000D03*
X146850000Y-87750000D03*
X146850000Y-85250000D03*
X146850000Y-82750000D03*
%TD*%
D27*
%TO.C,U1*%
X48742000Y-75866000D03*
D28*
X48742000Y-78406000D03*
X48742000Y-80946000D03*
X48742000Y-83486000D03*
X48742000Y-86026000D03*
X48742000Y-88566000D03*
X48742000Y-91106000D03*
X48742000Y-93646000D03*
X48742000Y-96186000D03*
X48742000Y-98726000D03*
X48742000Y-101266000D03*
X48742000Y-103806000D03*
X48742000Y-106346000D03*
X48742000Y-108886000D03*
X48742000Y-111426000D03*
X48742000Y-113966000D03*
X48742000Y-116506000D03*
X48742000Y-119046000D03*
X48742000Y-121586000D03*
X74142000Y-75866000D03*
X74142000Y-78406000D03*
X74142000Y-80946000D03*
X74142000Y-83486000D03*
X74142000Y-86026000D03*
X74142000Y-88566000D03*
X74142000Y-91106000D03*
X74142000Y-93646000D03*
X74142000Y-96186000D03*
X74142000Y-98726000D03*
X74142000Y-101266000D03*
X74142000Y-103806000D03*
X74142000Y-106346000D03*
X74142000Y-108886000D03*
X74142000Y-111426000D03*
X74142000Y-113966000D03*
X74142000Y-116506000D03*
X74142000Y-119046000D03*
X74142000Y-121586000D03*
%TD*%
D10*
%TO.C,R5*%
X119500000Y-38500000D03*
X127120000Y-38500000D03*
%TD*%
D25*
%TO.C,J13*%
X66800000Y-37500000D03*
D26*
X74000000Y-37500000D03*
%TD*%
M02*
