%TF.GenerationSoftware,KiCad,Pcbnew,9.0.2*%
%TF.CreationDate,2025-12-28T12:23:33+01:00*%
%TF.ProjectId,Cody,436f6479-2e6b-4696-9361-645f70636258,rev?*%
%TF.SameCoordinates,Original*%
%TF.FileFunction,Soldermask,Top*%
%TF.FilePolarity,Negative*%
%FSLAX46Y46*%
G04 Gerber Fmt 4.6, Leading zero omitted, Abs format (unit mm)*
G04 Created by KiCad (PCBNEW 9.0.2) date 2025-12-28 12:23:33*
%MOMM*%
%LPD*%
G01*
G04 APERTURE LIST*
G04 Aperture macros list*
%AMRoundRect*
0 Rectangle with rounded corners*
0 $1 Rounding radius*
0 $2 $3 $4 $5 $6 $7 $8 $9 X,Y pos of 4 corners*
0 Add a 4 corners polygon primitive as box body*
4,1,4,$2,$3,$4,$5,$6,$7,$8,$9,$2,$3,0*
0 Add four circle primitives for the rounded corners*
1,1,$1+$1,$2,$3*
1,1,$1+$1,$4,$5*
1,1,$1+$1,$6,$7*
1,1,$1+$1,$8,$9*
0 Add four rect primitives between the rounded corners*
20,1,$1+$1,$2,$3,$4,$5,0*
20,1,$1+$1,$4,$5,$6,$7,0*
20,1,$1+$1,$6,$7,$8,$9,0*
20,1,$1+$1,$8,$9,$2,$3,0*%
G04 Aperture macros list end*
%ADD10RoundRect,0.225000X-0.525000X-0.525000X0.525000X-0.525000X0.525000X0.525000X-0.525000X0.525000X0*%
%ADD11C,1.500000*%
%ADD12C,3.200000*%
%ADD13C,1.600000*%
%ADD14R,2.000000X2.000000*%
%ADD15C,2.000000*%
%ADD16RoundRect,0.250000X-0.725000X0.600000X-0.725000X-0.600000X0.725000X-0.600000X0.725000X0.600000X0*%
%ADD17O,1.950000X1.700000*%
%ADD18RoundRect,0.102000X-0.780000X0.780000X-0.780000X-0.780000X0.780000X-0.780000X0.780000X0.780000X0*%
%ADD19C,1.764000*%
%ADD20RoundRect,0.250000X0.725000X-0.600000X0.725000X0.600000X-0.725000X0.600000X-0.725000X-0.600000X0*%
%ADD21RoundRect,1.500000X-1.500000X-1.500000X1.500000X-1.500000X1.500000X1.500000X-1.500000X1.500000X0*%
%ADD22C,6.000000*%
%ADD23RoundRect,0.450000X-0.450000X-0.450000X0.450000X-0.450000X0.450000X0.450000X-0.450000X0.450000X0*%
%ADD24C,1.800000*%
%ADD25RoundRect,0.250000X-0.600000X-0.725000X0.600000X-0.725000X0.600000X0.725000X-0.600000X0.725000X0*%
%ADD26O,1.700000X1.950000*%
G04 APERTURE END LIST*
D10*
%TO.C,U2*%
X115532660Y-80170000D03*
D11*
X115532660Y-82710000D03*
X115532660Y-85250000D03*
X115532660Y-87790000D03*
X115532660Y-90330000D03*
X115532660Y-92870000D03*
X115500000Y-95425579D03*
X115532660Y-97950000D03*
D10*
X128500000Y-80145579D03*
D11*
X128500000Y-82685579D03*
X128500000Y-85225579D03*
X128500000Y-87765579D03*
X128500000Y-90305579D03*
X128500000Y-92845579D03*
X128467340Y-95401158D03*
X128500000Y-97925579D03*
%TD*%
D12*
%TO.C,*%
X79750000Y-143500000D03*
%TD*%
D13*
%TO.C,R4*%
X156500000Y-121190000D03*
X156500000Y-128810000D03*
%TD*%
D14*
%TO.C,BZ1*%
X92650000Y-90000000D03*
D15*
X100250000Y-90000000D03*
%TD*%
D12*
%TO.C,*%
X161500000Y-34000000D03*
%TD*%
D10*
%TO.C,U3*%
X135032660Y-80170000D03*
D11*
X135032660Y-82710000D03*
X135032660Y-85250000D03*
X135032660Y-87790000D03*
X135032660Y-90330000D03*
X135032660Y-92870000D03*
X135000000Y-95425579D03*
X135032660Y-97950000D03*
D10*
X148000000Y-80145579D03*
D11*
X148000000Y-82685579D03*
X148000000Y-85225579D03*
X148000000Y-87765579D03*
X148000000Y-90305579D03*
X148000000Y-92845579D03*
X147967340Y-95401158D03*
X148000000Y-97925579D03*
%TD*%
D16*
%TO.C,J15*%
X85500000Y-77000000D03*
D17*
X85500000Y-79500000D03*
X85500000Y-82000000D03*
X85500000Y-84500000D03*
X85500000Y-87000000D03*
X85500000Y-89500000D03*
X85500000Y-92000000D03*
%TD*%
D18*
%TO.C,U1*%
X143260000Y-102500000D03*
D19*
X140720000Y-102500000D03*
X138180000Y-102500000D03*
X135640000Y-102500000D03*
X133100000Y-102500000D03*
X130560000Y-102500000D03*
X128020000Y-102500000D03*
X125480000Y-102500000D03*
X122940000Y-102500000D03*
X120400000Y-102500000D03*
X117860000Y-102500000D03*
X115320000Y-102500000D03*
X112780000Y-102500000D03*
X110240000Y-102500000D03*
X107700000Y-102500000D03*
X105160000Y-102500000D03*
X102620000Y-102500000D03*
X100080000Y-102500000D03*
X97540000Y-102500000D03*
X143260000Y-127900000D03*
X140720000Y-127900000D03*
X138180000Y-127900000D03*
X135640000Y-127900000D03*
X133100000Y-127900000D03*
X130560000Y-127900000D03*
X128020000Y-127900000D03*
X125480000Y-127900000D03*
X122940000Y-127900000D03*
X120400000Y-127900000D03*
X117860000Y-127900000D03*
X115320000Y-127900000D03*
X112780000Y-127900000D03*
X110240000Y-127900000D03*
X107700000Y-127900000D03*
X105160000Y-127900000D03*
X102620000Y-127900000D03*
X100080000Y-127900000D03*
X97540000Y-127900000D03*
%TD*%
D20*
%TO.C,J5*%
X155500000Y-50500000D03*
D17*
X155500000Y-48000000D03*
X155500000Y-45500000D03*
X155500000Y-43000000D03*
X155500000Y-40500000D03*
X155500000Y-38000000D03*
%TD*%
D20*
%TO.C,J16*%
X155525000Y-92250000D03*
D17*
X155525000Y-89750000D03*
X155525000Y-87250000D03*
X155525000Y-84750000D03*
X155525000Y-82250000D03*
X155525000Y-79750000D03*
X155525000Y-77250000D03*
%TD*%
D14*
%TO.C,U4*%
X136750000Y-49566000D03*
D15*
X136750000Y-52106000D03*
X136750000Y-54646000D03*
X136750000Y-57186000D03*
X136750000Y-59726000D03*
X136750000Y-62266000D03*
X136750000Y-64806000D03*
X136750000Y-67346000D03*
X136750000Y-69886000D03*
X136750000Y-72426000D03*
%TD*%
D16*
%TO.C,J8*%
X85500000Y-99500000D03*
D17*
X85500000Y-102000000D03*
X85500000Y-104500000D03*
%TD*%
D13*
%TO.C,R3*%
X160500000Y-128820000D03*
X160500000Y-121200000D03*
%TD*%
D21*
%TO.C,J13*%
X123783333Y-136000000D03*
D22*
X130983333Y-136000000D03*
%TD*%
D13*
%TO.C,R2*%
X160500000Y-131820000D03*
X160500000Y-139440000D03*
%TD*%
D16*
%TO.C,J1*%
X85500000Y-37500000D03*
D17*
X85500000Y-40000000D03*
X85500000Y-42500000D03*
X85500000Y-45000000D03*
X85500000Y-47500000D03*
X85500000Y-50000000D03*
%TD*%
D16*
%TO.C,J2*%
X85500000Y-57000000D03*
D17*
X85500000Y-59500000D03*
X85500000Y-62000000D03*
X85500000Y-64500000D03*
X85500000Y-67000000D03*
X85500000Y-69500000D03*
%TD*%
D20*
%TO.C,J9*%
X155525000Y-104750000D03*
D17*
X155525000Y-102250000D03*
X155525000Y-99750000D03*
%TD*%
D21*
%TO.C,J14*%
X83950000Y-136000000D03*
D22*
X91150000Y-136000000D03*
%TD*%
D12*
%TO.C,*%
X161500000Y-143500000D03*
%TD*%
D13*
%TO.C,R6*%
X156500000Y-110570000D03*
X156500000Y-118190000D03*
%TD*%
D10*
%TO.C,U5*%
X115986000Y-50644000D03*
D11*
X115986000Y-53184000D03*
X115986000Y-55724000D03*
X115986000Y-58264000D03*
X115986000Y-60804000D03*
X115980385Y-63344000D03*
X115986000Y-65884000D03*
X115986000Y-68424000D03*
X115986000Y-70964000D03*
X115986000Y-73504000D03*
%TD*%
D21*
%TO.C,J12*%
X103866667Y-136000000D03*
D22*
X111066667Y-136000000D03*
%TD*%
D12*
%TO.C,*%
X79500000Y-34000000D03*
%TD*%
D13*
%TO.C,R5*%
X160500000Y-118200000D03*
X160500000Y-110580000D03*
%TD*%
D23*
%TO.C,D1*%
X104948000Y-89240000D03*
D24*
X106726000Y-90764000D03*
X108250000Y-89240000D03*
X109774000Y-90764000D03*
%TD*%
D20*
%TO.C,J6*%
X155500000Y-70000000D03*
D17*
X155500000Y-67500000D03*
X155500000Y-65000000D03*
X155500000Y-62500000D03*
X155500000Y-60000000D03*
X155500000Y-57500000D03*
%TD*%
D13*
%TO.C,R1*%
X156500000Y-139430000D03*
X156500000Y-131810000D03*
%TD*%
D25*
%TO.C,J7*%
X142000000Y-134475000D03*
D26*
X144500000Y-134475000D03*
X147000000Y-134475000D03*
X149500000Y-134475000D03*
%TD*%
D10*
%TO.C,U6*%
X92000000Y-49534000D03*
D11*
X92000000Y-52074000D03*
X92000000Y-54614000D03*
X92000000Y-57154000D03*
X92000000Y-59694000D03*
X92000000Y-62234000D03*
X92000000Y-64774000D03*
X92000000Y-67314000D03*
X92000000Y-69854000D03*
X91971193Y-72388806D03*
D10*
X110000000Y-49534000D03*
D11*
X110000000Y-52074000D03*
X110000000Y-54614000D03*
X110000000Y-57154000D03*
X110000000Y-59694000D03*
X110000000Y-62234000D03*
X110000000Y-64774000D03*
X110000000Y-67314000D03*
X110000000Y-69854000D03*
X109971193Y-72388806D03*
X95920000Y-78534000D03*
X98460000Y-78534000D03*
X101000000Y-78534000D03*
X103540000Y-78534000D03*
X106080000Y-78534000D03*
%TD*%
M02*
