%TF.GenerationSoftware,KiCad,Pcbnew,9.0.2*%
%TF.CreationDate,2026-03-20T16:28:52+01:00*%
%TF.ProjectId,Cody,436f6479-2e6b-4696-9361-645f70636258,rev?*%
%TF.SameCoordinates,Original*%
%TF.FileFunction,Plated,1,2,PTH,Drill*%
%TF.FilePolarity,Positive*%
%FSLAX46Y46*%
G04 Gerber Fmt 4.6, Leading zero omitted, Abs format (unit mm)*
G04 Created by KiCad (PCBNEW 9.0.2) date 2026-03-20 16:28:52*
%MOMM*%
%LPD*%
G01*
G04 APERTURE LIST*
%TA.AperFunction,ViaDrill*%
%ADD10C,0.400000*%
%TD*%
%TA.AperFunction,ComponentDrill*%
%ADD11C,0.800000*%
%TD*%
%TA.AperFunction,ComponentDrill*%
%ADD12C,0.900000*%
%TD*%
%TA.AperFunction,ComponentDrill*%
%ADD13C,0.950000*%
%TD*%
%TA.AperFunction,ComponentDrill*%
%ADD14C,1.000000*%
%TD*%
%TA.AperFunction,ComponentDrill*%
%ADD15C,1.040000*%
%TD*%
%TA.AperFunction,ComponentDrill*%
%ADD16C,1.050000*%
%TD*%
%TA.AperFunction,ComponentDrill*%
%ADD17C,1.200000*%
%TD*%
%TA.AperFunction,ComponentDrill*%
%ADD18C,1.500000*%
%TD*%
%TA.AperFunction,ComponentDrill*%
%ADD19C,4.500000*%
%TD*%
G04 APERTURE END LIST*
D10*
X104000000Y-126500000D03*
X104250000Y-109000000D03*
X110250000Y-76000000D03*
X110350000Y-124600000D03*
X110500000Y-107500000D03*
X110750000Y-74500000D03*
X110750000Y-96250000D03*
X112000000Y-96250000D03*
X112230000Y-107480000D03*
X119500000Y-49000000D03*
X120750000Y-49000000D03*
X126500000Y-91500000D03*
X130250000Y-48750000D03*
X130250000Y-127000000D03*
X131500000Y-48750000D03*
X131750000Y-124500000D03*
X131750000Y-127000000D03*
X134750000Y-48750000D03*
X137500000Y-112750000D03*
X138250000Y-115500000D03*
X139500000Y-75000000D03*
X141250000Y-103750000D03*
X144000000Y-115250000D03*
X144697000Y-122500000D03*
X146250000Y-103250000D03*
X147250000Y-110500000D03*
X156250000Y-102750000D03*
X156500000Y-88250000D03*
X157000000Y-101500000D03*
X157250000Y-78750000D03*
X159250000Y-84250000D03*
X163250000Y-121500000D03*
X167000000Y-78500000D03*
X168625000Y-76375000D03*
X171000000Y-77750000D03*
X173000000Y-80500000D03*
X174250000Y-83000000D03*
X178500000Y-116750000D03*
X180000000Y-78000000D03*
X180750000Y-76750000D03*
X184250000Y-120250000D03*
X184750000Y-120931000D03*
X189125000Y-98125000D03*
X189250000Y-100250000D03*
X193750000Y-80250000D03*
X196375000Y-117125000D03*
X196750000Y-101500000D03*
X196750000Y-116000000D03*
X197000000Y-82250000D03*
X203375000Y-96125000D03*
X204250000Y-99750000D03*
X205000000Y-69500000D03*
X205000000Y-72000000D03*
X205000000Y-78500000D03*
D11*
%TO.C,R7*%
X113380000Y-134000000D03*
X121000000Y-134000000D03*
%TO.C,R6*%
X174790000Y-132500000D03*
%TO.C,R5*%
X174790000Y-136000000D03*
%TO.C,R6*%
X182410000Y-132500000D03*
%TO.C,R5*%
X182410000Y-136000000D03*
%TO.C,R3*%
X185190000Y-132500000D03*
%TO.C,R4*%
X185190000Y-136000000D03*
%TO.C,R3*%
X192810000Y-132500000D03*
%TO.C,R4*%
X192810000Y-136000000D03*
%TO.C,R1*%
X195810000Y-132500000D03*
%TO.C,R2*%
X195810000Y-136000000D03*
%TO.C,R1*%
X203430000Y-132500000D03*
%TO.C,R2*%
X203430000Y-136000000D03*
D12*
%TO.C,D1*%
X107190000Y-134000000D03*
X109730000Y-134000000D03*
D13*
%TO.C,J4*%
X100000000Y-114000000D03*
X100000000Y-116500000D03*
X100000000Y-119000000D03*
X100000000Y-121500000D03*
X100000000Y-124000000D03*
X100000000Y-126500000D03*
%TO.C,J1*%
X100025000Y-94500000D03*
X100025000Y-97000000D03*
X100025000Y-99500000D03*
X100025000Y-102000000D03*
X100025000Y-104500000D03*
X100025000Y-107000000D03*
%TO.C,J5*%
X107000000Y-45500000D03*
X109500000Y-45500000D03*
X112000000Y-45500000D03*
X114500000Y-45500000D03*
X117000000Y-45500000D03*
X119500000Y-45500000D03*
%TO.C,J6*%
X127000000Y-45500000D03*
X129500000Y-45500000D03*
X132000000Y-45500000D03*
X134500000Y-45500000D03*
X137000000Y-45500000D03*
X139500000Y-45500000D03*
%TO.C,J3*%
X146500000Y-45500000D03*
X149000000Y-45500000D03*
X151500000Y-45500000D03*
X154000000Y-45500000D03*
X156500000Y-45500000D03*
X159000000Y-45500000D03*
%TO.C,J8*%
X168000000Y-45475000D03*
X170500000Y-45475000D03*
X173000000Y-45475000D03*
X175500000Y-45475000D03*
%TO.C,J15*%
X182500000Y-45500000D03*
X185000000Y-45500000D03*
X187500000Y-45500000D03*
X190000000Y-45500000D03*
X192500000Y-45500000D03*
X195000000Y-45500000D03*
X197500000Y-45500000D03*
%TO.C,J2*%
X209000000Y-65500000D03*
X209000000Y-68000000D03*
X209000000Y-70500000D03*
X209000000Y-73000000D03*
X209000000Y-75500000D03*
X209000000Y-78000000D03*
%TO.C,J7*%
X209000000Y-119000000D03*
X209000000Y-121500000D03*
X209000000Y-124000000D03*
X209000000Y-126500000D03*
D14*
%TO.C,J10*%
X100025000Y-76000000D03*
X100025000Y-78500000D03*
%TO.C,J9*%
X100025000Y-85250000D03*
X100025000Y-87750000D03*
%TO.C,BZ1*%
X205700000Y-55500000D03*
X213300000Y-55500000D03*
D15*
%TO.C,U1*%
X108100000Y-81130000D03*
X108100000Y-83670000D03*
X108100000Y-86210000D03*
X108100000Y-88750000D03*
X108100000Y-91290000D03*
X108100000Y-93830000D03*
X108100000Y-96370000D03*
X108100000Y-98910000D03*
X108100000Y-101450000D03*
X108100000Y-103990000D03*
X108100000Y-106530000D03*
X108100000Y-109070000D03*
X108100000Y-111610000D03*
X108100000Y-114150000D03*
X108100000Y-116690000D03*
X108100000Y-119230000D03*
X108100000Y-121770000D03*
X108100000Y-124310000D03*
X108100000Y-126850000D03*
X133500000Y-81130000D03*
X133500000Y-83670000D03*
X133500000Y-86210000D03*
X133500000Y-88750000D03*
X133500000Y-91290000D03*
X133500000Y-93830000D03*
X133500000Y-96370000D03*
X133500000Y-98910000D03*
X133500000Y-101450000D03*
X133500000Y-103990000D03*
X133500000Y-106530000D03*
X133500000Y-109070000D03*
X133500000Y-111610000D03*
X133500000Y-114150000D03*
X133500000Y-116690000D03*
X133500000Y-119230000D03*
X133500000Y-121770000D03*
X133500000Y-124310000D03*
X133500000Y-126850000D03*
D16*
%TO.C,U2*%
X139473340Y-124317000D03*
X139506000Y-109061421D03*
X139506000Y-111601421D03*
X139506000Y-114141421D03*
X139506000Y-116681421D03*
X139506000Y-119221421D03*
X139506000Y-121761421D03*
X139506000Y-126841421D03*
%TO.C,U6*%
X140748193Y-98354806D03*
X140777000Y-75500000D03*
X140777000Y-78040000D03*
X140777000Y-80580000D03*
X140777000Y-83120000D03*
X140777000Y-85660000D03*
X140777000Y-88200000D03*
X140777000Y-90740000D03*
X140777000Y-93280000D03*
X140777000Y-95820000D03*
X144697000Y-104500000D03*
X147237000Y-104500000D03*
X149777000Y-104500000D03*
X152317000Y-104500000D03*
X154857000Y-104500000D03*
%TO.C,U2*%
X154967340Y-124317000D03*
X155000000Y-109061421D03*
X155000000Y-111601421D03*
X155000000Y-114141421D03*
X155000000Y-116681421D03*
X155000000Y-119221421D03*
X155000000Y-121761421D03*
X155000000Y-126841421D03*
%TO.C,U6*%
X158748193Y-98354806D03*
X158777000Y-75500000D03*
X158777000Y-78040000D03*
X158777000Y-80580000D03*
X158777000Y-83120000D03*
X158777000Y-85660000D03*
X158777000Y-88200000D03*
X158777000Y-90740000D03*
X158777000Y-93280000D03*
X158777000Y-95820000D03*
%TO.C,U3*%
X161473340Y-124317000D03*
X161506000Y-109061421D03*
X161506000Y-111601421D03*
X161506000Y-114141421D03*
X161506000Y-116681421D03*
X161506000Y-119221421D03*
X161506000Y-121761421D03*
X161506000Y-126841421D03*
%TO.C,U5*%
X164632385Y-91310000D03*
X164638000Y-78610000D03*
X164638000Y-81150000D03*
X164638000Y-83690000D03*
X164638000Y-86230000D03*
X164638000Y-88770000D03*
X164638000Y-93850000D03*
X164638000Y-96390000D03*
X164638000Y-98930000D03*
X164638000Y-101470000D03*
%TO.C,U3*%
X176967340Y-124317000D03*
X177000000Y-109061421D03*
X177000000Y-111601421D03*
X177000000Y-114141421D03*
X177000000Y-116681421D03*
X177000000Y-119221421D03*
X177000000Y-121761421D03*
X177000000Y-126841421D03*
%TO.C,U7*%
X183093340Y-124412579D03*
X183126000Y-109157000D03*
X183126000Y-111697000D03*
X183126000Y-114237000D03*
X183126000Y-116777000D03*
X183126000Y-119317000D03*
X183126000Y-121857000D03*
X183126000Y-126937000D03*
X198587340Y-124412579D03*
X198620000Y-109157000D03*
X198620000Y-111697000D03*
X198620000Y-114237000D03*
X198620000Y-116777000D03*
X198620000Y-119317000D03*
X198620000Y-121857000D03*
X198620000Y-126937000D03*
D17*
%TO.C,U4*%
X185277000Y-78570000D03*
X185277000Y-81110000D03*
X185277000Y-83650000D03*
X185277000Y-86190000D03*
X185277000Y-88730000D03*
X185277000Y-91270000D03*
X185277000Y-93810000D03*
X185277000Y-96350000D03*
X185277000Y-98890000D03*
X185277000Y-101430000D03*
D18*
%TO.C,SW3*%
X99380000Y-65580000D03*
X105730000Y-63040000D03*
D19*
%TO.C,J14*%
X208500000Y-86500000D03*
X208500000Y-93700000D03*
%TO.C,J13*%
X208500000Y-103500000D03*
X208500000Y-110700000D03*
M02*
